<?xml version="1.0" standalone="no"?>
<!DOCTYPE svg PUBLIC "-//W3C//DTD SVG 20010904//EN"
 "http://www.w3.org/TR/2001/REC-SVG-20010904/DTD/svg10.dtd">
<svg version="1.0" xmlns="http://www.w3.org/2000/svg"
 width="1947.000000pt" height="2541.000000pt" viewBox="0 0 1947.000000 2541.000000"
 preserveAspectRatio="xMidYMid meet">
<metadata>
Created by potrace 1.16, written by Peter Selinger 2001-2019
</metadata>
<g transform="translate(0.000000,2541.000000) scale(0.100000,-0.100000)"
fill="#000000" stroke="none">
<path d="M0 14214 l0 -11196 36 -50 c36 -48 36 -50 24 -93 -11 -40 -15 -44
-36 -39 -21 6 -24 3 -24 -25 0 -21 5 -31 15 -31 8 0 19 -9 25 -21 9 -16 8 -20
-2 -18 -38 5 -38 3 -38 -190 0 -189 0 -190 23 -193 12 -2 20 -7 17 -13 -3 -5
-13 -9 -22 -8 -16 2 -18 -7 -18 -76 0 -61 3 -80 15 -85 19 -7 19 -35 0 -42
-12 -5 -15 -31 -15 -149 0 -141 0 -144 22 -147 43 -6 79 -128 42 -142 -8 -3
-26 -3 -40 0 l-24 6 0 -851 0 -851 165 0 c91 0 165 4 165 9 0 5 -6 13 -12 19
-9 7 -13 42 -13 109 0 138 38 216 83 171 17 -17 15 -28 -7 -28 -46 0 -51 -8
-51 -89 0 -43 3 -81 7 -85 4 -4 8 -15 8 -24 0 -10 14 -20 40 -28 29 -8 41 -17
43 -32 5 -36 32 -27 32 11 0 68 31 72 71 7 23 -38 26 -39 79 -40 54 0 56 1 68
33 25 64 26 149 3 220 -26 81 -26 89 -1 104 10 7 24 31 30 53 5 22 15 59 21
81 7 30 7 45 0 52 -6 6 -11 18 -11 26 0 13 2 13 16 -1 13 -13 17 -34 15 -94
-2 -66 0 -76 13 -71 11 5 16 0 16 -13 0 -19 8 -20 170 -20 l170 0 0 25 c0 23
4 25 44 25 26 0 48 6 56 15 7 8 23 15 36 15 15 0 24 6 24 15 0 11 11 15 40 15
22 0 40 5 40 10 0 6 18 10 40 10 29 0 40 4 40 15 0 8 -7 15 -16 15 -14 0 -15
2 -3 17 13 15 14 15 17 0 5 -24 21 -21 44 8 11 14 24 25 30 25 5 0 28 14 49
31 29 23 39 27 39 15 0 -12 10 -16 40 -16 29 0 40 4 40 15 0 12 16 15 80 15
79 0 80 0 80 25 0 23 4 25 40 25 33 0 40 3 40 20 0 17 7 20 50 20 47 0 50 2
64 35 8 19 19 35 24 35 12 0 22 -35 22 -75 0 -40 16 -55 59 -55 73 1 121 18
281 101 19 9 50 32 69 49 26 25 40 31 61 26 36 -7 76 20 59 40 -9 10 -9 14 0
14 6 0 14 -6 17 -13 9 -25 98 -21 151 7 63 32 104 81 158 187 39 78 44 95 49
178 3 51 2 99 -1 107 -3 8 -18 14 -33 14 -35 0 -54 22 -46 55 5 19 13 25 29
24 52 -5 53 -3 51 68 -1 67 -1 67 5 13 5 -47 9 -55 29 -58 12 -2 22 -8 22 -13
0 -5 7 -9 15 -9 14 0 35 -29 35 -50 0 -6 -12 -16 -26 -22 -25 -12 -25 -12 -5
-20 19 -7 21 -15 21 -98 0 -77 3 -94 20 -112 17 -19 20 -19 20 -5 0 9 6 17 13
17 16 0 33 71 43 173 4 37 11 67 15 67 5 0 9 36 9 81 0 61 3 79 13 73 9 -6 9
-4 0 7 -7 7 -13 24 -13 39 0 17 3 21 9 12 6 -10 11 -2 16 25 l7 38 16 -40 c11
-29 16 -87 18 -215 6 -341 15 -500 30 -515 11 -11 40 -13 142 -9 70 3 132 7
139 9 6 2 13 20 15 40 l3 36 41 -53 41 -53 11 -165 c6 -91 8 -223 6 -295 -3
-72 -6 -196 -7 -278 l-2 -147 467 0 c456 0 466 0 461 19 -3 13 -10 18 -21 14
-11 -5 -14 -2 -9 10 4 11 -1 25 -13 37 -11 11 -20 25 -20 31 0 6 -16 27 -36
47 -19 20 -40 49 -46 64 -5 16 -16 28 -24 28 -8 0 -14 9 -14 20 0 11 -7 20
-15 20 -8 0 -15 5 -15 11 0 6 -11 25 -25 43 -14 18 -25 38 -25 43 0 6 -16 24
-35 40 -19 17 -35 35 -35 40 0 5 -9 18 -20 28 -11 10 -20 28 -20 40 0 13 -17
40 -40 63 -22 22 -40 47 -40 56 0 9 -9 21 -20 28 -11 7 -20 18 -20 24 0 6 -9
19 -20 29 -11 10 -20 23 -20 30 0 6 -23 35 -51 65 -27 29 -58 69 -69 89 -10
20 -27 44 -37 53 -26 24 -43 46 -43 56 0 5 -9 17 -20 27 -11 10 -20 28 -20 40
0 13 -7 28 -15 35 -8 7 -15 17 -15 22 0 5 -11 21 -25 36 -14 15 -25 35 -25 44
0 10 -4 18 -10 18 -5 0 -10 18 -10 40 0 37 -2 40 -28 40 -26 0 -28 4 -46 80
-11 44 -24 80 -29 80 -5 0 -7 17 -4 40 4 34 2 40 -13 40 -22 0 -32 82 -23 188
5 65 9 76 42 111 20 21 45 41 56 45 11 3 32 17 47 31 15 14 32 25 39 25 17 0
132 41 143 52 6 4 20 8 33 8 12 0 38 9 58 20 20 11 46 20 58 20 13 0 28 5 34
11 6 6 53 22 104 36 52 13 110 29 129 35 19 5 58 15 85 21 28 7 55 15 61 19 5
4 40 12 77 19 37 7 67 15 67 18 0 3 19 7 43 8 23 2 43 7 45 13 2 5 16 10 30
10 25 0 158 26 192 38 8 2 22 6 30 7 8 1 33 7 55 13 22 7 137 23 255 38 118
14 280 36 360 49 80 13 217 27 305 30 88 4 174 8 190 9 60 4 73 -14 28 -38
-16 -8 -22 -15 -14 -16 23 0 153 76 208 123 104 89 103 89 469 117 189 14 258
32 330 87 17 12 36 23 42 23 7 0 12 5 12 10 0 6 7 10 16 10 8 0 12 5 9 10 -3
6 2 13 12 17 10 3 30 15 45 25 30 21 54 23 61 6 4 -8 6 -7 6 4 1 9 9 18 19 20
9 3 -3 5 -28 5 -25 0 -51 -4 -58 -9 -8 -7 -12 -7 -12 1 0 6 -7 11 -16 11 -8 0
-13 -4 -10 -9 3 -5 -1 -12 -10 -15 -27 -10 -44 -7 -44 9 0 21 -39 19 -64 -4
-31 -27 -110 -43 -185 -36 -141 12 -151 15 -151 36 0 16 -7 19 -49 19 -42 0
-54 5 -80 31 -17 17 -31 35 -31 40 0 5 -7 9 -15 9 -11 0 -15 11 -15 40 0 36
-2 40 -25 40 -16 0 -25 6 -25 15 0 8 -4 15 -10 15 -5 0 -10 -7 -10 -15 0 -8
-4 -15 -10 -15 -13 0 -13 17 0 25 16 10 12 55 -6 55 -8 0 -12 5 -9 10 3 6 15
10 26 10 13 0 19 7 19 24 0 28 -13 39 -63 55 -37 12 -63 43 -52 60 3 5 -5 13
-17 16 l-21 7 23 18 c21 16 22 18 6 27 -10 5 -19 14 -19 19 -1 5 -8 9 -16 9
-24 0 -24 25 0 51 12 13 19 27 15 31 -4 4 -11 1 -15 -6 -5 -7 -14 -12 -20 -10
-7 3 4 20 25 42 33 33 35 37 16 37 -29 0 -28 6 8 37 34 28 38 43 13 43 -14 0
-14 2 2 20 17 19 17 21 0 40 -18 20 -17 20 8 20 31 0 35 14 10 29 -15 9 -16
12 -3 20 8 5 17 8 22 5 12 -8 28 32 28 70 0 26 4 36 15 36 11 0 14 7 10 23 -4
15 -1 28 9 36 10 9 16 30 16 56 0 26 5 45 12 47 8 3 4 9 -10 17 -22 12 -32 61
-12 61 6 0 10 -5 10 -11 0 -5 5 -7 12 -3 8 5 2 12 -17 21 -20 9 -23 12 -10 11
27 -3 75 10 75 21 0 4 -20 16 -45 26 -42 18 -45 38 -4 28 10 -3 20 0 20 6 1 6
2 17 3 24 1 9 21 11 74 8 39 -2 72 0 72 4 0 14 -32 37 -65 46 -20 6 -35 16
-35 24 0 8 -4 15 -10 15 -5 0 -10 9 -10 19 0 11 -14 31 -32 46 -18 16 -27 29
-21 33 6 4 12 31 15 60 4 39 2 52 -8 52 -8 0 -14 7 -14 15 0 8 -8 15 -17 15
-15 0 -17 8 -15 50 2 27 7 50 12 50 4 0 25 7 46 16 33 14 36 17 20 26 -16 9
-16 11 -1 28 15 17 14 18 -14 28 -17 6 -31 15 -31 20 0 5 25 22 55 37 30 14
53 31 49 36 -3 5 -14 7 -24 4 -13 -4 -22 1 -29 14 -16 29 -14 34 16 28 16 -3
32 1 40 9 8 8 23 14 34 14 14 0 19 7 19 28 0 32 -9 46 -34 56 -15 5 -17 9 -8
18 9 9 15 9 24 0 15 -15 45 -16 53 -1 4 6 -2 13 -14 16 -32 8 -25 23 12 24
l32 1 -34 9 c-18 6 -31 13 -28 15 3 3 38 10 78 15 62 8 75 13 97 39 14 16 33
30 43 30 11 0 19 5 19 10 0 6 -8 10 -17 10 -9 0 -24 7 -34 16 -16 15 -20 14
-41 -6 -22 -20 -22 -22 -5 -34 48 -36 -15 -34 -67 2 -49 33 -57 52 -23 52 14
0 27 -5 29 -10 2 -7 13 -6 30 2 23 11 28 19 28 51 0 30 4 37 20 37 17 0 20 7
20 39 0 22 -5 42 -12 44 -7 3 6 6 30 6 38 1 42 3 42 26 0 23 4 25 40 25 22 0
40 -5 40 -11 0 -5 5 -7 10 -4 11 7 -12 35 -29 35 -6 0 -11 18 -11 39 0 36 -3
40 -27 44 -20 3 -15 4 15 6 31 1 42 5 42 17 0 14 -9 16 -50 12 -45 -5 -53 -2
-69 18 -11 13 -24 24 -30 24 -6 0 -11 5 -11 10 0 6 7 10 15 10 8 0 15 -4 15
-10 0 -5 14 -10 31 -10 17 0 28 4 24 10 -3 6 -14 10 -25 10 -10 0 -20 7 -24
15 -3 8 -12 15 -21 15 -8 0 -15 7 -15 15 0 8 -5 15 -11 15 -5 0 -7 5 -3 11 4
8 9 7 15 -2 7 -11 11 -10 22 5 14 19 37 15 37 -5 0 -6 8 -18 17 -27 15 -16 16
-15 9 11 -5 23 -2 32 19 48 29 24 32 39 8 39 -13 0 -14 3 -5 12 8 8 15 8 27
-2 20 -17 32 -5 15 15 -10 12 -10 19 -2 27 7 7 12 35 12 64 l0 52 -40 -5 c-26
-4 -40 -2 -40 6 0 6 9 11 20 11 11 0 20 5 20 10 0 6 10 15 23 20 17 8 12 9
-20 4 l-43 -6 0 46 0 46 39 0 c28 0 40 5 45 18 3 9 9 23 12 30 3 6 1 12 -5 12
-6 0 -11 -7 -11 -14 0 -12 -6 -13 -30 -5 -36 13 -39 26 -6 35 27 6 67 44 48
44 -7 0 -12 -4 -12 -10 0 -5 -5 -10 -12 -10 -6 0 -8 3 -5 7 9 8 -22 43 -39 43
-7 0 -15 -6 -17 -12 -4 -10 -6 -10 -6 -1 -1 20 -34 53 -53 53 -9 0 -20 5 -23
10 -4 6 6 10 24 10 16 0 31 -4 33 -8 2 -5 48 -30 103 -57 54 -26 104 -53 111
-59 6 -7 42 -25 80 -41 38 -16 71 -32 74 -35 3 -4 29 -18 59 -32 41 -19 49
-26 34 -30 -23 -6 -35 -39 -22 -59 8 -12 10 -12 18 0 5 7 6 22 4 32 -3 10 0
19 6 19 6 0 11 -11 11 -24 0 -14 5 -28 10 -31 6 -3 10 -1 10 6 0 8 4 8 16 -2
14 -12 14 -14 -3 -20 -10 -4 -12 -8 -5 -8 7 -1 24 -13 37 -28 20 -23 26 -26
34 -13 8 12 12 12 29 -3 10 -9 30 -17 43 -17 13 0 38 -2 56 -6 22 -4 32 -2 36
8 2 7 3 5 2 -5 -3 -19 29 -24 41 -6 4 8 9 7 16 -2 7 -11 11 -11 15 -1 2 6 14
12 26 12 15 0 18 -3 10 -8 -7 -5 63 -8 156 -8 93 1 173 4 177 8 4 5 30 8 58 8
66 0 136 -33 200 -94 28 -25 52 -46 55 -46 18 -2 163 -216 213 -315 99 -196
144 -287 188 -380 29 -60 79 -166 111 -234 32 -68 59 -126 59 -130 0 -3 8 -22
19 -41 10 -19 42 -91 70 -160 29 -69 59 -140 67 -158 8 -18 14 -37 14 -42 0
-6 9 -29 19 -53 64 -141 129 -329 144 -413 4 -23 1 -33 -15 -43 -23 -14 -40
-5 -18 10 12 9 12 10 -3 5 -10 -3 -21 -6 -23 -6 -2 0 -4 -5 -4 -12 0 -6 -7
-19 -16 -29 -8 -9 -17 -26 -18 -36 -1 -10 -12 -22 -24 -28 -12 -5 -22 -13 -22
-17 0 -4 -18 -12 -40 -18 -23 -6 -40 -16 -39 -23 3 -29 -3 -36 -43 -42 -22 -4
-50 -17 -62 -29 -28 -30 -56 -40 -56 -21 0 8 -7 15 -15 15 -11 0 -15 -11 -15
-39 0 -38 1 -39 39 -43 22 -2 37 0 35 3 -2 4 3 10 12 13 22 9 24 8 24 -9 0
-12 7 -14 27 -9 19 4 25 3 18 -3 -5 -6 -95 -31 -200 -57 -320 -78 -258 -53
-797 -329 -205 -105 -283 -133 -553 -196 -276 -65 -269 -62 -411 -162 -71 -50
-183 -125 -249 -167 -201 -127 -343 -222 -357 -239 -11 -14 -11 -15 7 -5 11 6
57 29 102 51 46 22 136 73 200 112 65 40 139 84 164 100 26 15 89 37 140 49
83 20 238 63 524 147 50 15 92 30 95 33 3 3 23 7 45 8 22 2 45 8 50 14 7 7 1
9 -18 4 -17 -4 -26 -3 -23 2 3 6 20 12 38 15 53 8 120 28 165 48 24 10 54 19
67 19 13 0 26 6 29 14 5 13 56 28 69 20 17 -11 -5 -31 -29 -26 -18 3 -24 1
-19 -7 9 -13 43 -15 51 -1 3 5 12 7 20 3 14 -5 20 16 16 57 -2 13 -1 13 8 0 8
-12 15 -10 43 15 18 17 34 33 36 38 2 4 7 7 12 7 4 0 41 15 82 34 121 55 220
85 398 120 132 26 342 56 351 50 6 -3 7 12 3 38 -4 28 -2 38 4 30 8 -11 17
-11 57 2 63 22 165 35 190 26 22 -8 71 -68 94 -112 8 -16 16 -26 18 -24 3 2 0
14 -6 25 -10 17 -9 20 4 15 8 -4 15 -14 15 -24 0 -10 7 -23 15 -30 8 -7 15
-19 15 -26 0 -8 7 -14 15 -14 8 0 15 -9 15 -20 0 -11 6 -20 14 -20 8 0 26 -19
39 -43 14 -24 33 -49 41 -56 8 -7 17 -29 21 -51 4 -26 13 -40 26 -43 13 -3 19
-14 19 -31 0 -27 13 -55 40 -87 32 -38 40 -48 40 -54 0 -3 -4 -3 -10 0 -5 3
-10 1 -10 -4 0 -6 7 -11 15 -11 21 0 59 -36 51 -49 -4 -5 -1 -13 5 -16 7 -5 9
-29 4 -74 -4 -44 -2 -83 6 -112 l12 -44 10 45 c5 25 10 135 11 245 l1 200 -38
109 c-47 138 -114 275 -264 546 -122 218 -437 839 -533 1050 -67 147 -380 772
-454 909 -79 144 -123 206 -197 277 -104 99 -102 98 -339 99 -216 1 -281 9
-410 51 -71 23 -504 235 -660 323 -138 78 -450 231 -581 285 -74 30 -177 75
-230 100 -108 50 -186 73 -298 86 -292 35 -429 66 -740 170 -133 44 -294 94
-359 110 -65 16 -159 43 -208 59 -124 41 -247 65 -298 57 -61 -10 -172 -45
-246 -78 -36 -16 -114 -41 -175 -54 -170 -37 -205 -55 -205 -106 0 -35 -44
-65 -110 -73 -25 -3 -70 -11 -100 -17 -30 -6 -77 -10 -105 -9 -27 1 -95 -5
-150 -14 -128 -19 -134 -19 -143 5 -4 10 -27 30 -52 42 -28 15 -51 36 -60 56
-25 52 -35 32 -34 -70 0 -87 3 -102 32 -161 23 -47 57 -90 116 -149 79 -77 83
-83 70 -104 -13 -19 -11 -24 35 -65 63 -57 100 -83 131 -90 137 -35 309 -53
610 -64 74 -3 153 -9 175 -14 22 -5 67 -15 100 -21 33 -7 82 -21 108 -31 26
-11 59 -19 73 -19 14 0 22 -4 19 -10 -7 -11 8 -14 18 -4 11 11 120 13 139 3
14 -7 72 -15 141 -19 4 0 7 -4 7 -10 0 -5 -33 -19 -73 -30 -97 -28 -306 -121
-637 -284 -151 -74 -385 -180 -520 -236 -268 -112 -800 -371 -922 -449 -47
-31 -88 -66 -104 -91 -15 -22 -30 -40 -35 -40 -4 0 -11 17 -15 38 -4 20 -13
51 -19 67 -17 42 -29 115 -16 95 6 -8 11 -27 11 -42 0 -16 5 -28 10 -28 6 0
10 -9 10 -20 0 -11 5 -20 10 -20 6 0 10 -6 10 -14 0 -33 23 -24 75 29 l56 56
-19 27 c-10 15 -26 44 -35 64 -10 20 -22 40 -28 44 -6 3 -14 17 -19 30 -5 13
-16 24 -25 24 -8 0 -15 6 -15 14 0 8 -13 19 -29 24 -20 7 -32 21 -41 46 -10
33 -13 34 -27 20 -12 -11 -13 -18 -4 -27 12 -12 15 -37 4 -37 -17 0 -82 134
-150 305 -19 49 -43 108 -53 130 -10 22 -27 65 -39 95 -11 30 -44 118 -74 195
-70 183 -177 505 -254 770 -121 417 -246 1035 -287 1425 -18 169 -18 170 -37
170 -23 0 -41 31 -29 51 8 12 13 12 31 1 20 -13 21 -12 14 5 -4 10 -10 33 -13
51 -2 18 -10 32 -18 32 -7 0 -18 8 -23 19 -6 10 -21 26 -35 35 -20 13 -30 14
-51 4 -21 -9 -25 -18 -25 -55 0 -30 -4 -43 -14 -43 -19 0 -26 20 -15 42 6 11
5 20 -4 25 -13 8 -57 75 -57 86 0 3 16 -1 36 -9 34 -14 37 -14 51 5 8 12 21
21 29 21 8 0 14 6 14 13 0 24 41 49 71 43 l29 -5 0 72 c0 120 -8 146 -47 165
-38 18 -41 45 -5 50 12 2 27 12 33 23 14 27 5 464 -10 483 -8 10 -8 20 3 40
16 32 22 441 7 466 -13 19 -16 9 -30 -89 -5 -41 -14 -77 -19 -80 -5 -3 -12
-13 -15 -21 -5 -11 -6 -9 -6 5 2 36 -1 43 -18 41 -13 -1 -19 8 -21 33 -5 45
11 60 38 36 20 -18 20 -18 20 26 0 47 -13 69 -40 69 -21 0 -87 56 -95 80 -9
30 -22 24 -22 -10 0 -16 -7 -38 -17 -49 -12 -13 -14 -20 -5 -23 16 -5 2 -48
-17 -48 -20 0 -28 24 -15 48 9 17 5 25 -28 54 -22 18 -51 41 -65 51 -41 28
-69 93 -70 161 -1 39 3 60 12 63 6 3 12 -2 12 -11 0 -9 8 -16 18 -16 18 0 56
-53 45 -63 -3 -3 6 -20 20 -37 15 -17 32 -50 38 -73 19 -72 21 -74 31 -40 5
20 15 33 25 33 13 0 13 3 3 15 -22 26 4 40 78 41 l67 1 6 32 c8 39 14 45 33
38 16 -6 32 -87 22 -113 -8 -20 -26 -9 -26 17 0 10 -7 19 -15 19 -18 0 -18 -8
0 -40 8 -14 14 -38 15 -53 0 -19 4 -27 12 -23 7 3 20 9 30 12 17 6 34 67 23
84 -4 6 -6 48 -6 95 0 65 -3 83 -13 79 -22 -9 -69 16 -121 64 l-50 47 -3 -32
-3 -32 -47 32 c-50 34 -71 54 -102 103 -23 35 -36 110 -26 148 5 21 11 24 38
21 44 -6 60 -32 33 -55 -13 -11 -11 -17 13 -45 15 -19 34 -44 43 -57 15 -20
18 -21 34 -8 11 9 42 15 84 16 66 1 66 1 84 39 14 28 23 36 38 32 17 -5 19 0
19 39 0 41 -2 44 -19 34 -28 -14 -28 -14 -49 34 -17 38 -25 44 -64 54 -52 13
-81 41 -76 74 3 21 8 23 68 23 36 0 71 -4 77 -9 7 -4 22 -6 33 -3 17 4 20 2
15 -14 -7 -22 2 -59 16 -59 12 0 12 67 0 74 -9 6 -8 65 4 158 l7 57 -41 7
c-29 5 -49 16 -67 37 -36 42 -27 52 45 50 l61 -1 -1 111 c0 62 -4 120 -8 131
-8 21 -68 49 -76 36 -3 -5 -1 -19 5 -31 8 -14 9 -24 2 -31 -7 -7 -15 0 -26 20
-8 16 -31 47 -50 67 -32 33 -66 108 -66 143 0 8 6 28 14 45 8 18 16 40 20 50
3 9 14 17 25 17 24 0 44 -33 36 -59 -3 -9 4 -44 15 -76 11 -32 20 -74 21 -94
1 -31 2 -33 8 -11 5 19 14 26 39 28 l32 3 0 263 0 263 -55 37 c-79 52 -74 76
7 35 49 -25 76 -11 33 17 -34 22 -61 77 -67 137 -6 48 3 67 34 81 10 3 8 8 -4
16 -26 16 -22 30 7 30 18 0 28 -7 36 -27 6 -16 13 -23 19 -17 11 11 2 54 -11
54 -17 0 -9 38 10 43 22 5 26 56 5 64 -10 4 -14 23 -14 64 0 53 3 61 24 70 20
9 25 21 31 68 10 90 72 332 106 418 17 43 49 130 71 193 55 157 112 269 205
401 80 116 164 209 244 272 79 63 297 195 352 213 63 20 77 30 77 57 0 63 88
132 183 143 l58 7 -12 -27 c-7 -14 -18 -26 -25 -26 -18 0 -74 -33 -74 -44 0
-6 -10 -20 -22 -33 -26 -28 -19 -28 52 -3 30 11 70 19 88 20 36 0 40 7 16 25
-14 10 -15 14 -3 33 18 28 29 28 29 0 0 -16 3 -19 11 -11 8 8 8 17 -1 32 -9
18 -6 30 17 73 33 60 78 88 141 88 41 0 43 -1 40 -27 -2 -20 -10 -29 -28 -33
-19 -4 -34 -24 -62 -80 -21 -41 -38 -80 -38 -86 0 -7 37 -14 93 -19 86 -8 120
-9 207 -5 116 4 261 -14 398 -51 76 -20 302 -124 302 -139 0 -16 56 -62 99
-81 33 -14 54 -33 76 -67 22 -34 45 -55 88 -77 55 -28 58 -32 56 -65 0 -19 -1
-40 0 -46 2 -19 50 -62 107 -94 50 -28 54 -33 54 -68 0 -49 28 -92 89 -139
l50 -38 0 -61 c1 -49 6 -69 30 -106 17 -26 41 -54 55 -63 23 -16 24 -20 19
-84 -5 -57 -2 -73 17 -111 13 -25 41 -62 63 -82 37 -34 40 -40 38 -86 -1 -54
24 -123 63 -169 22 -26 23 -32 14 -90 -8 -54 -7 -67 11 -102 12 -22 35 -56 51
-75 17 -18 30 -42 30 -53 0 -10 6 -25 13 -32 10 -10 8 -12 -8 -9 -12 2 -21 -3
-23 -13 -5 -25 57 -147 94 -188 31 -32 44 -63 27 -60 -21 3 -21 -6 3 -73 31
-90 55 -141 72 -151 6 -4 12 -13 12 -20 0 -8 -3 -8 -9 2 -17 26 -19 -6 -6 -82
8 -45 29 -112 51 -157 36 -77 36 -80 20 -106 -18 -27 -17 -91 5 -191 9 -40 26
-285 33 -463 2 -47 7 -101 10 -120 31 -154 45 -268 43 -355 -1 -118 31 -294
69 -367 13 -26 33 -95 44 -155 12 -59 35 -162 52 -228 16 -66 32 -130 35 -141
3 -14 15 -24 34 -28 35 -7 60 -49 40 -69 -17 -17 -63 10 -73 43 -5 17 -6 6 -5
-31 3 -47 12 -70 56 -143 98 -164 138 -255 197 -461 10 -33 28 -76 41 -95 27
-40 28 -50 8 -50 -8 0 -21 12 -29 28 -14 25 -15 22 -10 -53 5 -65 12 -90 37
-132 17 -29 35 -53 40 -53 5 0 5 7 1 18 -11 21 -13 1114 -3 1197 4 33 10 130
14 215 7 187 21 398 40 620 9 91 20 217 25 280 12 135 25 259 46 425 9 66 16
158 16 205 -1 84 -40 329 -117 718 -108 549 -318 1167 -563 1657 -33 66 -80
179 -106 252 -51 148 -73 196 -112 242 -34 41 -74 61 -120 61 -35 0 -164 56
-164 71 0 9 23 14 185 39 220 33 347 49 414 52 l64 3 59 -69 c32 -38 92 -119
133 -180 41 -61 104 -142 141 -181 121 -128 240 -297 310 -438 64 -131 85
-200 145 -472 7 -33 14 -53 16 -44 6 23 -55 323 -78 388 -26 71 -95 214 -128
266 -52 80 -160 222 -241 315 -45 52 -105 128 -133 170 -66 99 -124 175 -219
288 -103 122 -104 121 132 208 192 70 782 280 900 321 58 20 112 43 120 52 8
9 48 60 89 114 87 115 192 226 241 256 19 11 50 21 68 21 97 0 292 -168 462
-398 41 -56 79 -101 83 -102 5 0 -1 14 -13 30 -12 17 -19 30 -15 30 3 0 1 6
-5 13 -48 56 -50 61 -38 69 10 6 10 8 0 8 -8 0 -11 7 -8 18 3 9 2 23 -3 30
-10 17 19 140 41 175 10 14 18 30 18 34 0 26 75 213 85 213 8 0 15 18 18 43 3
23 10 62 16 87 24 97 53 268 55 320 2 30 8 82 14 115 7 33 12 81 12 108 0 26
5 47 10 47 6 0 10 33 10 79 0 44 4 81 9 83 5 2 12 54 14 117 3 62 10 116 15
120 6 3 11 40 11 81 2 117 7 158 21 175 10 12 10 21 1 41 -14 32 -14 35 4 28
17 -7 21 21 5 31 -15 9 -12 34 6 52 9 10 13 24 9 37 -10 37 -12 106 -2 106 5
0 4 6 -2 14 -9 10 -8 15 1 19 8 2 14 17 16 32 2 23 0 26 -13 15 -12 -10 -15
-10 -15 4 0 9 7 16 15 16 8 0 15 6 15 14 0 8 8 16 18 19 11 2 6 7 -18 14 -25
8 -29 11 -13 12 12 1 28 3 36 6 11 5 17 -14 28 -87 7 -51 14 -100 16 -108 8
-50 57 -201 96 -297 47 -118 104 -221 187 -338 104 -149 220 -323 253 -380 18
-33 67 -116 107 -185 41 -69 80 -138 89 -155 22 -45 199 -305 235 -346 17 -19
40 -47 51 -60 11 -14 40 -49 65 -79 25 -30 58 -73 74 -95 16 -22 162 -173 325
-335 266 -265 453 -471 505 -555 28 -44 198 -277 220 -300 25 -26 95 -135 135
-210 18 -33 36 -62 40 -65 9 -7 31 -58 31 -72 0 -9 -3 -9 -12 0 -17 17 -31 15
-24 -3 3 -8 1 -15 -5 -15 -7 0 -9 -13 -5 -35 6 -28 4 -35 -9 -35 -10 0 -15
-10 -15 -32 0 -57 -18 -105 -43 -113 -21 -8 -21 -8 5 -12 18 -3 28 -12 32 -29
6 -23 26 -34 26 -14 0 5 17 12 38 16 20 4 40 11 43 17 4 5 28 10 54 11 25 2
50 8 55 15 5 9 10 10 14 2 4 -6 4 -11 1 -11 -11 0 19 -24 55 -44 19 -11 54
-37 77 -59 23 -22 49 -44 57 -49 9 -5 16 -16 16 -23 0 -8 7 -15 15 -15 23 0
65 -49 65 -76 0 -12 5 -26 10 -29 6 -4 10 -12 8 -18 -5 -31 14 -76 35 -79 12
-2 23 -11 25 -20 3 -14 -3 -18 -23 -18 -31 0 -30 -23 1 -29 10 -2 22 -8 27
-15 5 -8 10 -7 16 3 15 24 111 -57 171 -144 55 -80 200 -422 200 -472 0 -15
12 -53 26 -83 56 -120 197 -468 285 -700 50 -135 132 -339 181 -455 50 -115
107 -257 128 -315 21 -58 62 -168 90 -245 28 -77 62 -171 75 -210 38 -111 70
-192 125 -315 120 -267 220 -536 220 -590 0 -10 6 -40 14 -66 22 -76 95 -450
106 -550 36 -302 18 -648 -65 -1274 -46 -344 -58 -397 -110 -497 -24 -45 -46
-94 -49 -110 -10 -47 -64 -577 -81 -783 -8 -107 -23 -256 -32 -330 -21 -174
-21 -185 -4 -185 8 0 14 14 16 40 2 22 6 81 9 130 18 263 51 525 96 755 16 80
38 197 50 260 12 63 33 171 46 240 54 266 111 700 162 1220 24 256 27 323 26
655 -1 402 0 390 -68 710 -91 428 -108 477 -289 855 -25 52 -75 174 -112 270
-99 261 -125 320 -273 615 -74 149 -179 374 -234 500 -55 127 -145 316 -201
420 -56 105 -109 211 -118 237 -21 63 -89 178 -217 373 -122 184 -148 233
-192 370 -25 79 -32 119 -33 190 -2 102 13 142 78 210 41 44 38 59 -5 26 -34
-25 -40 -11 -9 20 12 12 25 45 32 80 6 32 18 67 27 77 9 10 20 35 24 55 4 23
13 37 21 37 8 0 15 8 15 18 0 22 51 62 78 62 10 0 27 9 37 20 10 11 24 20 32
20 7 0 13 5 13 10 0 6 18 10 40 10 22 0 40 -5 40 -11 0 -5 5 -7 11 -3 8 5 8 8
0 13 -13 9 -33 71 -22 71 9 0 55 -49 67 -71 10 -17 42 -59 115 -148 25 -31 96
-135 158 -231 62 -96 121 -181 132 -189 10 -7 61 -32 112 -55 117 -53 244
-133 372 -233 169 -132 143 -121 405 -177 63 -14 178 -41 255 -60 169 -42 288
-62 415 -71 175 -12 241 -34 495 -164 126 -65 271 -133 320 -151 224 -80 285
-104 364 -142 65 -31 90 -38 115 -33 137 28 235 13 364 -56 163 -87 292 -215
450 -450 101 -149 132 -255 106 -357 -21 -78 -18 -92 32 -191 53 -106 129
-188 223 -241 119 -68 156 -95 179 -135 21 -36 22 -47 16 -110 -5 -38 -8 -108
-8 -155 -1 -78 2 -91 36 -162 20 -42 72 -130 116 -195 75 -111 143 -240 275
-528 88 -193 110 -246 212 -520 146 -394 130 -360 192 -402 30 -20 65 -52 79
-72 33 -50 48 -129 35 -178 -21 -74 -14 -104 40 -188 32 -48 80 -149 124 -259
114 -283 128 -309 239 -427 92 -97 118 -147 154 -295 17 -67 56 -182 87 -255
31 -74 70 -168 88 -209 62 -149 64 -151 149 -186 87 -36 144 -50 235 -60 152
-15 189 -115 99 -264 -65 -107 -76 -136 -76 -200 0 -57 6 -71 109 -274 86
-166 120 -246 156 -362 32 -100 54 -155 69 -167 31 -25 255 -174 366 -243 192
-119 358 -272 410 -380 38 -77 20 -170 -68 -359 -38 -82 -55 -133 -55 -160 0
-22 16 -92 36 -155 112 -349 144 -651 103 -957 -9 -68 -21 -203 -26 -300 -9
-175 -21 -327 -41 -533 -26 -276 -82 -516 -155 -669 -59 -120 -228 -274 -384
-348 -335 -158 -391 -192 -469 -281 -102 -118 -181 -159 -331 -172 -52 -4
-140 -18 -195 -31 -97 -23 -113 -23 -480 -21 -287 2 -409 -1 -500 -13 -66 -8
-142 -16 -168 -18 -83 -7 -379 43 -537 90 -114 33 -339 127 -318 131 14 3 84
-9 193 -33 6 -1 33 -5 60 -10 28 -4 56 -12 63 -17 6 -6 12 -7 12 -2 -1 16 -44
40 -93 53 -60 15 -267 42 -276 37 -3 -3 -33 2 -66 9 -33 8 -141 19 -240 25
-170 10 -463 33 -586 46 -71 8 -207 -18 -544 -102 -245 -62 -338 -82 -615
-134 -222 -41 -454 -93 -845 -192 -529 -132 -649 -158 -975 -213 -257 -43
-360 -68 -595 -143 -128 -40 -475 -187 -660 -277 -172 -84 -435 -239 -435
-255 0 -5 27 -8 60 -8 33 0 60 5 60 9 0 5 -8 9 -17 10 -14 0 -15 2 -3 6 8 4
20 12 27 18 13 13 53 13 166 0 63 -7 67 -7 67 13 0 16 9 22 40 27 30 5 40 11
40 26 0 13 7 19 23 19 13 0 29 6 36 13 11 9 14 9 18 0 3 -8 22 -13 44 -13 32
0 39 3 39 20 0 17 7 20 40 20 22 0 40 4 40 9 0 13 56 31 95 31 17 0 41 9 53
20 13 12 35 20 57 20 19 0 35 5 35 10 0 6 18 10 40 10 22 0 40 5 40 10 0 6 18
10 40 10 28 0 40 4 40 15 0 8 15 17 38 21 20 4 39 10 42 13 8 10 75 31 98 31
11 0 31 4 44 9 13 5 36 12 51 16 15 3 25 10 22 15 -3 5 0 12 6 16 6 3 15 0 20
-7 6 -11 14 -9 38 9 24 17 44 22 93 22 44 0 76 6 103 20 22 11 51 20 65 20 37
0 88 16 106 34 8 9 25 16 37 16 24 0 106 27 122 40 5 4 24 11 41 14 18 4 40
16 49 26 10 11 22 17 27 14 5 -3 14 -1 21 4 7 5 29 12 50 15 20 3 49 15 63 26
14 11 41 23 60 27 18 3 38 12 45 20 6 8 21 14 33 14 12 0 31 7 42 15 10 8 28
15 39 15 l20 1 -20 9 c-16 7 -13 9 18 9 36 1 50 14 25 24 -7 3 0 6 16 6 16 1
37 8 45 16 9 8 33 16 52 18 20 2 41 7 48 11 11 7 41 16 216 61 33 8 76 20 95
25 126 34 354 82 545 115 83 14 195 35 250 46 55 12 112 22 126 24 15 1 36 6
48 10 11 3 21 3 21 -2 0 -4 47 -9 105 -11 58 -2 119 -8 137 -13 18 -5 48 -9
65 -9 18 0 33 -4 33 -10 0 -5 18 -10 40 -10 30 0 40 4 40 16 0 14 38 15 397
10 253 -4 399 -10 401 -16 2 -6 39 -10 83 -10 61 0 79 3 79 14 0 10 22 16 80
21 44 4 80 11 80 16 0 5 18 9 40 9 22 0 40 5 40 10 0 11 43 14 53 4 7 -7 154
-59 222 -78 238 -67 339 -94 345 -91 3 2 32 -3 65 -11 33 -7 86 -14 117 -14
61 0 59 1 73 -65 l6 -31 157 4 c120 3 176 0 233 -12 125 -27 178 -44 206 -66
14 -11 32 -20 39 -20 28 0 -17 -72 -137 -220 -134 -166 -370 -372 -397 -346
-7 8 28 41 87 80 42 29 73 54 138 113 15 13 22 27 17 34 -4 8 -3 9 4 5 12 -7
52 27 52 45 0 5 4 8 9 5 5 -4 7 2 4 12 -5 20 -19 10 -115 -80 -22 -21 -43 -38
-48 -38 -5 0 -10 -4 -12 -8 -8 -20 -130 -103 -144 -98 -8 3 -13 9 -10 14 2 4
-3 43 -13 87 -9 44 -20 75 -22 70 -3 -6 0 -64 7 -130 7 -66 16 -166 20 -222
l7 -103 1533 0 1534 0 0 12705 0 12705 -9735 0 -9735 0 0 -11196z m11510 8468
c0 -10 46 -9 84 2 20 6 31 5 36 -4 6 -9 37 -14 99 -16 49 -1 100 -5 112 -9 15
-5 19 -4 14 5 -6 9 0 10 23 5 18 -3 33 -2 37 4 8 14 45 14 45 0 0 -6 -9 -8
-20 -4 -23 7 -26 -1 -6 -21 16 -16 76 -19 76 -4 0 6 7 10 15 10 9 0 15 -9 15
-21 0 -18 4 -21 29 -16 16 3 33 1 40 -6 9 -9 14 -8 21 3 11 17 21 10 22 -16 2
-20 7 -21 110 -27 31 -2 63 -9 71 -15 8 -7 17 -9 20 -5 4 3 13 0 21 -6 8 -7
28 -11 43 -10 30 3 122 -38 130 -58 3 -7 9 -11 13 -8 10 6 27 -14 31 -38 4
-17 5 -17 25 2 23 21 36 19 27 -5 -4 -10 3 -14 26 -14 23 0 29 -4 25 -15 -5
-12 3 -15 36 -15 48 0 80 -14 80 -35 0 -8 5 -15 10 -15 6 0 10 -4 10 -10 0 -5
-9 -10 -21 -10 -11 0 -18 -4 -15 -9 3 -4 17 -6 31 -4 41 8 98 -6 91 -23 -3 -9
1 -14 12 -15 47 -1 107 -12 110 -20 2 -5 10 -9 18 -9 8 0 14 -4 14 -10 0 -13
-13 -13 -25 -1 -15 14 -94 30 -100 20 -3 -5 7 -11 22 -15 15 -4 47 -17 70 -30
22 -12 43 -20 46 -17 3 2 10 -5 17 -16 6 -12 15 -19 19 -16 5 3 12 -2 15 -11
4 -10 13 -13 25 -9 16 5 39 -2 71 -23 2 -2 -2 -7 -10 -12 -11 -7 -12 -12 -3
-21 6 -6 9 -18 6 -25 -3 -8 0 -14 7 -14 6 0 8 5 5 10 -3 6 3 10 14 10 22 0 71
-40 71 -58 0 -6 10 -17 23 -23 26 -14 47 -41 41 -51 -3 -5 4 -8 15 -8 11 0 26
-10 32 -22 11 -21 54 -74 94 -119 8 -9 15 -23 15 -31 0 -9 7 -21 16 -29 9 -7
30 -42 47 -78 17 -36 37 -70 44 -74 7 -4 13 -22 13 -38 0 -20 4 -28 12 -23 7
4 8 3 4 -5 -10 -16 25 -111 40 -111 19 0 33 -31 24 -54 -4 -12 -6 -32 -4 -46
1 -14 3 -43 3 -66 1 -26 8 -50 22 -65 15 -18 19 -32 14 -56 -4 -24 -1 -37 14
-52 16 -16 17 -21 5 -25 -17 -7 -8 -35 18 -56 10 -9 21 -29 23 -45 3 -17 10
-57 15 -90 13 -78 14 -249 2 -271 -11 -19 -4 -55 12 -66 8 -6 7 -11 -3 -17 -8
-5 -12 -19 -9 -35 3 -14 2 -26 -1 -26 -11 0 -29 -50 -20 -56 5 -3 9 -20 9 -37
0 -24 -3 -28 -10 -17 -7 11 -10 5 -10 -22 0 -21 -4 -38 -9 -38 -11 0 -20 -70
-9 -76 4 -3 8 -11 7 -17 0 -9 -2 -8 -6 1 -2 6 -9 10 -14 6 -5 -3 -6 -11 -2
-17 14 -23 13 -47 -2 -47 -10 0 -15 -11 -15 -34 0 -19 -5 -38 -10 -41 -6 -4
-8 -10 -5 -15 2 -4 7 -25 11 -46 5 -32 3 -37 -7 -26 -21 20 -29 14 -19 -14 16
-40 1 -48 -24 -12 -12 18 -27 33 -32 33 -6 0 -33 24 -60 53 -36 39 -55 52 -76
52 -15 0 -28 4 -28 9 0 5 -13 8 -30 7 -16 -1 -32 3 -34 8 -3 7 -9 5 -15 -4 -7
-10 -14 -11 -18 -5 -13 17 -90 48 -102 41 -6 -4 -32 0 -57 9 -75 25 -199 30
-248 9 -111 -48 -151 -67 -170 -81 -20 -15 -20 -15 9 -9 22 5 26 4 15 -4 -8
-5 -22 -10 -31 -10 -8 0 -26 -12 -40 -27 -13 -14 -18 -23 -11 -19 17 10 15 -5
-5 -33 -16 -24 -16 -24 13 -17 17 4 24 3 16 -2 -10 -7 -9 -14 6 -33 32 -41 34
-59 9 -69 -31 -13 4 -13 37 0 19 7 25 6 23 -3 -1 -7 7 -11 18 -9 45 6 115 1
115 -8 0 -4 19 -7 43 -7 75 1 119 -6 124 -19 3 -9 12 -10 35 -2 23 8 36 8 49
-1 10 -6 32 -11 49 -11 17 0 29 -5 27 -11 -1 -6 4 -14 11 -16 6 -3 10 1 9 9
-2 7 -2 10 0 6 3 -5 16 -5 29 -2 30 8 32 -4 2 -15 -20 -7 -18 -9 15 -15 20 -4
37 -13 37 -20 0 -14 45 -59 78 -75 12 -7 20 -16 17 -21 -5 -9 13 -36 47 -69
12 -11 14 -21 8 -31 -12 -19 -13 -33 -1 -26 5 3 11 -4 14 -16 4 -13 1 -26 -6
-30 -8 -5 -7 -8 6 -8 24 0 21 -17 -4 -31 -17 -9 -19 -13 -8 -20 7 -4 11 -9 9
-11 -3 -2 -14 -8 -25 -14 -11 -6 -21 -20 -23 -31 -4 -27 -37 -43 -92 -46 -25
-2 -51 -6 -58 -11 -8 -5 -11 -3 -10 5 2 7 -7 18 -19 24 -13 5 -23 13 -23 17 0
5 -11 8 -25 8 -14 0 -25 4 -25 8 0 13 -129 106 -195 140 -34 18 -115 46 -180
63 -104 27 -132 30 -205 26 -113 -7 -250 -39 -250 -57 0 -13 43 -7 58 7 15 14
36 18 28 5 -3 -5 39 -2 92 5 93 13 160 13 230 -2 38 -9 43 -31 7 -37 -13 -3
-23 -1 -22 5 1 5 -4 12 -10 14 -7 3 -13 -3 -13 -12 0 -13 -4 -14 -22 -4 -16 9
-23 9 -26 0 -5 -16 -27 -14 -42 4 -7 8 -18 15 -24 15 -6 0 -2 -7 8 -15 22 -17
28 -15 -74 -19 -25 -1 -72 -10 -105 -20 -50 -15 -70 -29 -127 -87 -86 -87 -87
-110 -10 -121 30 -4 33 -2 28 15 -5 21 15 45 67 75 15 9 27 20 27 24 0 4 3 8
8 8 4 0 5 -38 3 -84 -3 -79 -1 -87 22 -110 13 -13 41 -29 60 -34 49 -14 89
-60 76 -87 -9 -18 -9 -19 4 -2 19 23 24 22 31 -8 4 -14 11 -25 16 -25 6 0 12
0 15 0 3 0 15 -8 27 -19 27 -26 78 -44 78 -28 0 17 24 -11 50 -58 19 -34 21
-36 15 -11 -6 26 -4 28 19 22 15 -4 26 -1 29 7 3 7 8 5 13 -8 9 -23 23 -35 42
-35 7 0 10 5 6 11 -5 9 1 10 22 5 16 -4 31 -12 32 -17 2 -5 7 -7 12 -4 4 3 7
-3 6 -13 0 -10 11 -22 31 -31 31 -14 39 -27 62 -98 7 -22 7 -33 0 -33 -6 0 -7
-5 -3 -11 5 -8 9 -8 14 1 10 16 50 -4 50 -25 0 -8 5 -15 11 -15 6 0 8 9 4 20
-4 11 -3 45 0 74 8 59 28 79 51 49 7 -10 22 -18 35 -18 14 0 27 -11 38 -31 10
-17 22 -29 30 -26 8 3 11 0 7 -7 -4 -6 -3 -11 2 -11 6 0 8 -9 5 -20 -7 -25 13
-27 21 -2 3 9 4 -2 2 -25 -2 -24 -1 -43 4 -43 4 0 6 -20 5 -45 -1 -25 1 -45 5
-45 3 0 5 -37 3 -82 -1 -46 -4 -144 -7 -218 -4 -135 -37 -320 -57 -320 -5 0
-9 -11 -9 -25 0 -14 -4 -25 -10 -25 -5 0 -10 -7 -10 -15 0 -8 -4 -23 -9 -33
-5 -9 -16 -33 -25 -52 -12 -26 -16 -30 -17 -15 -1 11 -1 23 0 27 0 4 -6 5 -15
1 -11 -4 -12 -8 -4 -13 9 -6 9 -9 1 -14 -6 -4 -9 -11 -6 -16 3 -5 -8 -17 -24
-26 -23 -14 -28 -21 -19 -31 7 -9 6 -14 -6 -19 -9 -3 -16 -15 -16 -25 0 -11
-6 -22 -14 -25 -8 -3 -12 -13 -8 -26 3 -14 1 -19 -9 -16 -13 4 -49 -20 -49
-34 0 -4 8 -5 18 -2 9 3 5 -2 -9 -10 -24 -14 -59 -70 -59 -94 0 -6 -14 -13
-30 -17 -17 -4 -27 -11 -24 -16 3 -6 13 -8 23 -5 9 4 5 -3 -9 -14 -14 -11 -28
-20 -32 -20 -5 0 -8 -7 -8 -15 0 -9 -7 -18 -15 -21 -8 -4 -13 -10 -10 -14 6
-9 -83 -100 -98 -100 -18 0 -47 -32 -47 -52 0 -10 -4 -18 -10 -18 -5 0 -6 -7
-3 -17 4 -11 3 -14 -5 -9 -7 4 -15 0 -19 -11 -4 -10 -24 -35 -45 -55 -21 -20
-38 -41 -38 -47 0 -6 -13 -24 -29 -40 -16 -16 -42 -47 -57 -68 -16 -21 -39
-47 -51 -59 -13 -12 -23 -26 -23 -33 0 -6 -7 -11 -15 -11 -9 0 -15 -9 -15 -21
0 -15 -5 -19 -15 -15 -8 3 -15 0 -15 -7 -1 -15 -35 -57 -48 -57 -5 0 -12 -13
-15 -30 -4 -16 -12 -30 -19 -30 -18 0 -77 -73 -89 -110 -6 -16 -18 -30 -26
-30 -16 0 -43 -24 -43 -38 0 -6 -30 -41 -67 -79 -38 -38 -79 -85 -92 -104 -13
-20 -33 -40 -44 -45 -11 -5 -25 -18 -31 -29 -6 -11 -14 -22 -18 -25 -4 -3 -12
-18 -17 -33 -9 -22 -15 -27 -31 -22 -11 4 -20 2 -20 -4 0 -6 4 -11 9 -11 16 0
-44 -58 -64 -61 -12 -3 -21 -14 -23 -26 -2 -13 -21 -41 -43 -64 -21 -22 -39
-43 -39 -46 0 -7 -22 -26 -61 -52 -33 -22 -35 -26 -21 -40 14 -15 14 -16 -1
-19 -9 -2 -17 -8 -17 -13 0 -5 -13 -9 -30 -9 -16 0 -30 -5 -30 -10 0 -6 3 -9
8 -8 4 2 8 -1 10 -7 1 -5 -8 -11 -20 -13 -13 -2 -28 -10 -35 -19 -6 -8 -18
-13 -25 -11 -7 3 -18 -2 -24 -10 -6 -9 -27 -16 -46 -16 -28 -1 -34 -4 -30 -18
3 -13 -2 -18 -16 -18 -12 0 -24 -4 -27 -10 -3 -5 -15 -10 -25 -10 -13 0 -17
-5 -14 -15 7 -18 -12 -20 -20 -2 -4 6 -4 2 -2 -11 3 -17 -2 -26 -19 -34 -31
-14 -44 -43 -15 -34 24 7 59 15 45 9 -6 -2 -16 -17 -24 -34 -8 -19 -18 -28
-27 -25 -9 3 -18 -2 -21 -12 -4 -9 -11 -20 -17 -24 -7 -6 -6 -11 4 -18 13 -9
13 -11 0 -20 -12 -8 -13 -12 -2 -19 10 -6 2 -13 -27 -25 -23 -8 -41 -21 -41
-27 0 -6 -9 -9 -20 -6 -11 3 -18 0 -17 -6 2 -9 -36 -23 -83 -31 -9 -1 -21 -5
-27 -9 -7 -5 -66 -10 -131 -12 -120 -4 -195 2 -187 14 2 4 -9 5 -26 3 -37 -5
-38 13 -1 23 l27 8 -25 7 -25 7 25 11 c25 11 25 11 -7 11 -18 1 -33 6 -33 12
0 6 -9 8 -21 4 -15 -5 -19 -4 -15 4 4 6 15 11 24 11 12 1 10 5 -8 15 -14 8
-32 12 -41 9 -9 -2 -19 1 -22 8 -3 8 -22 13 -49 13 -40 0 -47 3 -58 28 -9 20
-18 27 -31 24 -10 -3 -28 4 -40 14 -12 10 -30 19 -41 19 -10 0 -18 5 -18 10 0
6 -20 10 -45 10 -25 0 -45 5 -45 10 0 6 -21 11 -47 11 -27 1 -40 3 -30 6 22 6
22 16 -2 28 -43 23 -90 44 -151 70 -127 53 -180 79 -180 87 0 4 -7 8 -16 8
-10 0 -14 5 -10 15 4 13 2 13 -14 5 -20 -11 -50 -4 -50 11 0 13 14 11 30 -3 8
-7 6 -3 -4 10 -11 12 -29 22 -41 22 -12 0 -31 9 -42 19 -15 14 -23 17 -32 8
-8 -8 -11 -7 -11 4 0 8 -10 15 -22 16 -11 1 -24 6 -27 11 -3 5 -13 12 -21 16
-39 18 -61 34 -53 38 4 3 2 3 -6 1 -25 -6 -51 8 -51 28 0 20 -15 26 -25 9 -11
-18 -23 -10 -17 12 4 17 2 20 -11 15 -12 -4 -17 -1 -17 9 0 11 -6 15 -19 11
-12 -3 -27 3 -37 14 -9 10 -23 19 -31 19 -7 0 -16 7 -19 15 -4 8 -10 13 -14
10 -5 -3 -11 -1 -15 5 -3 5 -1 10 6 10 7 0 2 9 -11 20 -13 11 -27 20 -32 20
-5 0 -6 5 -3 10 3 6 0 10 -7 10 -8 0 -20 8 -29 18 -8 9 -30 28 -47 41 -18 13
-32 30 -32 38 0 8 -7 13 -17 11 -10 -2 -22 5 -28 17 -6 11 -17 20 -25 20 -8 0
-15 7 -15 15 -1 21 -14 40 -28 40 -7 0 -6 -4 3 -10 9 -6 11 -10 3 -10 -7 0
-19 12 -27 28 -8 15 -15 23 -16 17 0 -11 -26 30 -36 57 -3 10 -10 15 -15 12
-5 -2 -29 16 -53 42 -28 29 -49 43 -57 38 -8 -5 -11 -1 -7 12 5 21 -6 36 -37
48 -15 5 -16 9 -6 15 11 7 9 13 -7 29 -11 11 -23 18 -26 14 -3 -3 -6 1 -6 9 0
8 -16 31 -35 51 -19 20 -39 48 -45 63 -5 14 -15 23 -20 20 -6 -4 -9 -1 -8 7 2
7 -2 12 -8 11 -6 -1 -21 20 -33 48 -13 27 -28 49 -34 49 -12 1 -109 134 -115
158 -2 6 -10 12 -19 12 -10 0 -14 6 -10 20 4 14 0 20 -13 20 -12 0 -17 8 -17
26 0 33 -20 55 -33 34 -7 -11 -10 -9 -15 11 -3 14 -5 30 -3 36 2 7 -6 18 -17
26 -16 13 -17 17 -6 31 12 14 10 16 -12 16 -21 0 -25 4 -20 17 4 10 2 14 -4
10 -7 -5 -9 0 -6 13 3 11 0 20 -6 20 -6 0 -11 6 -11 14 0 9 -7 12 -19 9 -14
-4 -24 3 -35 26 -9 17 -21 31 -27 31 -6 0 -7 5 -4 10 3 6 16 10 27 10 12 0 19
3 16 6 -10 10 -58 12 -64 3 -12 -20 -23 -8 -14 16 5 14 5 27 0 30 -4 3 -10 0
-12 -7 -3 -7 -7 -2 -10 10 -4 12 -2 22 3 22 5 0 -1 18 -12 40 -12 22 -28 40
-36 40 -10 0 -12 6 -8 20 5 14 2 20 -10 20 -12 0 -15 6 -10 19 3 11 1 22 -5
26 -15 9 -12 35 4 35 11 0 10 8 -5 40 -11 22 -25 39 -32 37 -7 -1 -13 12 -15
31 -3 28 -7 33 -23 29 -15 -4 -17 -2 -9 13 13 24 13 33 0 25 -5 -3 -10 3 -10
15 0 12 4 19 9 16 4 -3 6 6 3 19 -2 14 -8 25 -12 25 -16 0 -19 32 -6 52 15 21
10 39 -24 81 -11 15 -12 22 -2 37 16 25 15 30 -3 30 -8 0 -15 7 -15 16 0 8 5
12 10 9 16 -10 25 27 9 39 -8 6 -15 18 -17 26 -2 8 -9 19 -15 23 -9 6 -9 10 1
14 6 2 12 12 12 20 0 11 -7 14 -24 9 -16 -4 -24 -2 -23 7 0 6 -5 27 -12 45
-13 33 -31 43 -31 17 0 -8 -9 -19 -21 -26 -18 -9 -20 -8 -15 9 4 11 2 23 -4
27 -5 3 -10 27 -10 53 0 74 -21 215 -36 244 -9 17 -11 29 -4 33 5 3 10 14 9
23 0 12 -3 11 -9 -6 l-9 -22 -51 31 c-27 17 -52 35 -55 40 -4 5 -12 9 -18 9
-8 0 -8 -3 -2 -8 46 -35 77 -83 81 -127 3 -27 7 -51 9 -56 7 -10 -5 -39 -16
-39 -5 0 -9 7 -9 16 0 14 -2 14 -16 3 -13 -10 -15 -24 -11 -61 4 -29 1 -63 -7
-86 -7 -20 -19 -71 -25 -112 -12 -75 -22 -108 -47 -167 -8 -17 -14 -42 -14
-56 0 -40 -92 -157 -123 -157 -5 0 -23 -6 -40 -14 -103 -45 -231 -56 -265 -22
-23 22 -14 25 48 15 63 -10 103 -5 121 17 7 9 29 24 48 34 20 10 45 27 56 37
11 10 46 42 77 70 33 30 52 54 45 57 -9 3 -8 7 3 15 8 5 15 26 17 47 1 20 9
52 18 71 18 38 18 50 -13 189 -21 99 -35 129 -93 215 -22 31 -39 61 -39 66 0
5 12 14 28 20 l27 11 -34 -4 c-18 -1 -41 -10 -50 -18 -10 -9 -23 -16 -30 -16
-7 0 -9 -5 -6 -11 4 -6 -2 -13 -13 -16 -19 -5 -42 -41 -42 -67 0 -7 9 -25 21
-40 28 -35 22 -78 -11 -86 -36 -9 -48 -2 -70 39 -25 50 -18 157 11 166 12 4
19 16 19 30 0 12 7 25 15 29 8 3 15 11 15 18 0 7 11 26 25 42 14 16 25 42 25
57 0 15 5 31 10 34 6 3 10 13 10 22 0 9 10 27 22 40 19 20 20 27 10 43 -16 26
-15 45 3 60 25 21 2 33 -47 24 -23 -4 -46 -7 -50 -6 -5 1 -8 -3 -8 -8 0 -6 -4
-10 -10 -10 -8 0 -75 -42 -89 -55 -2 -3 2 -12 9 -21 12 -13 11 -17 -1 -24 -9
-7 -20 -3 -34 11 -17 17 -18 21 -5 30 13 9 13 10 0 6 -17 -4 -39 20 -39 43 0
12 2 12 13 -2 7 -10 22 -17 32 -17 17 1 17 2 2 6 -10 2 -18 11 -18 18 0 7 -4
15 -9 17 -5 2 -11 23 -13 48 -5 50 -28 120 -40 120 -4 0 -5 7 -1 15 3 9 -1 21
-10 28 -37 29 -71 313 -56 477 4 41 12 174 19 295 26 497 28 512 119 669 42
73 76 111 113 129 18 9 43 25 56 37 22 21 92 55 92 45 0 -3 -33 -36 -74 -75
-82 -78 -121 -142 -167 -277 -53 -154 -53 -153 -53 -463 -1 -296 1 -316 21
-341 6 -8 16 -31 21 -52 10 -34 60 -93 70 -82 2 2 -1 34 -7 72 -6 37 -15 98
-21 134 -26 171 -1 324 83 509 14 30 32 78 40 106 14 47 14 52 0 50 -9 -2 -23
-21 -32 -43 -9 -23 -19 -45 -23 -49 -5 -4 -8 -15 -8 -25 0 -10 -6 -24 -13 -31
-7 -7 -19 -29 -27 -48 -7 -19 -19 -42 -27 -51 -7 -8 -13 -21 -13 -27 0 -18
-18 -14 -28 6 -11 20 0 146 18 212 39 146 146 263 320 351 74 37 137 52 162
38 9 -5 26 -30 37 -54 18 -42 72 -236 91 -328 8 -41 20 -61 20 -33 0 65 -36
270 -57 330 -15 39 -35 100 -45 136 -11 36 -21 73 -24 82 -5 13 2 18 29 23 20
4 42 3 49 -1 7 -4 21 -9 31 -9 10 -1 23 -8 27 -15 4 -7 17 -14 27 -15 27 -2
59 -34 77 -76 12 -28 14 -70 10 -202 -3 -112 -1 -167 6 -167 5 0 9 -3 9 -7 -3
-21 2 -33 15 -33 12 0 13 -6 4 -31 -6 -16 -8 -32 -5 -36 11 -10 27 9 27 33 0
13 4 24 8 24 13 0 46 -103 44 -137 -3 -36 13 -45 21 -13 3 11 10 20 16 20 7 0
9 -10 5 -27 -6 -21 -4 -25 9 -20 8 3 18 3 21 0 8 -8 -25 -53 -40 -53 -15 0
-44 -38 -44 -59 0 -11 4 -10 20 4 11 10 20 23 20 29 0 7 9 12 20 12 24 0 24 0
3 -34 l-17 -27 26 26 c14 15 28 34 31 43 4 9 11 16 17 16 12 0 8 -8 -24 -55
-31 -44 -65 -133 -59 -154 3 -11 -7 -32 -25 -52 -43 -50 -66 -119 -58 -176 5
-36 1 -63 -16 -113 -13 -36 -26 -67 -30 -70 -9 -7 -23 -62 -19 -80 1 -8 -5 -5
-14 8 -14 18 -15 29 -6 50 30 75 34 90 38 125 2 20 2 37 0 37 -10 0 -81 -237
-81 -272 0 -20 -4 -35 -7 -32 -9 5 -22 -46 -14 -54 3 -3 12 4 20 16 9 11 22
28 30 36 8 8 12 22 9 30 -4 11 2 19 20 26 14 5 26 14 26 20 0 11 11 24 41 48
15 12 16 10 5 -22 -7 -19 -20 -43 -29 -54 -9 -10 -19 -34 -22 -53 -2 -19 -11
-56 -20 -83 -18 -59 -19 -69 -4 -60 12 7 3 -34 -11 -49 -4 -5 -5 -17 -3 -28
10 -38 31 1 38 69 9 94 65 253 65 184 0 -12 -5 -22 -10 -22 -6 0 -8 -10 -4
-24 3 -13 1 -27 -5 -30 -6 -4 -11 -22 -11 -39 0 -24 3 -28 10 -17 5 8 7 23 4
33 -3 10 0 17 8 17 15 0 41 58 32 71 -3 5 0 9 5 9 6 0 11 9 11 20 0 11 5 20
11 20 5 0 9 -12 8 -27 -1 -16 -1 -41 -1 -58 2 -27 3 -28 18 -14 8 9 16 30 16
46 1 24 5 29 19 26 16 -5 17 1 12 64 -3 46 -1 65 5 58 6 -5 12 -26 14 -45 3
-30 4 -28 8 16 4 43 2 51 -10 46 -12 -5 -13 -3 -4 9 20 26 55 141 56 185 1 49
17 72 19 27 1 -20 3 -22 6 -8 2 11 12 38 23 60 10 22 25 61 32 87 12 38 12 45
1 41 -19 -7 -16 11 7 52 11 20 16 34 10 30 -5 -3 -10 -4 -10 -1 0 12 88 142
108 160 12 10 19 23 15 29 -3 5 1 15 9 21 19 14 30 44 18 51 -9 6 46 65 61 65
5 0 9 5 9 11 0 6 -7 8 -15 5 -13 -5 -12 -1 2 19 10 13 28 26 40 29 16 5 20 11
16 24 -6 14 -4 15 8 5 13 -10 19 -10 35 2 17 13 17 14 2 15 -24 0 -13 24 18
40 13 7 24 18 24 23 0 5 -30 -14 -66 -43 -36 -28 -70 -50 -76 -48 -6 2 7 17
28 33 54 41 100 91 96 104 -2 6 5 11 15 11 28 0 83 38 83 57 0 10 14 27 30 38
16 11 30 23 30 28 0 4 6 7 14 7 7 0 16 9 19 19 3 14 1 18 -9 14 -8 -3 -14 -9
-14 -13 0 -4 -18 -19 -40 -34 -24 -16 -40 -34 -40 -46 0 -11 -6 -20 -12 -20
-7 0 -25 -7 -40 -14 -40 -21 -34 -6 12 34 22 19 40 39 40 44 0 5 8 15 18 22
15 12 15 15 2 24 -11 8 -8 9 15 5 17 -3 24 -2 18 1 -7 3 -13 12 -13 19 0 12
-6 11 -36 -1 -20 -8 -39 -13 -41 -10 -3 3 7 11 23 17 17 7 24 13 16 16 -18 7
4 33 28 33 10 0 23 7 30 15 11 13 15 13 22 3 7 -10 9 -10 5 2 -2 8 6 22 17 32
25 21 9 23 -18 3 -29 -22 -42 -18 -21 5 10 11 24 20 32 20 8 0 11 5 8 10 -3 6
5 14 18 19 14 5 27 21 31 35 3 13 15 28 26 31 11 3 20 11 20 16 0 5 9 9 21 9
11 0 17 5 14 10 -3 6 4 14 17 19 13 6 19 10 13 10 -5 1 13 16 40 35 52 35 84
66 68 66 -5 0 -14 -5 -21 -12 -7 -7 -12 -8 -12 -2 0 5 31 34 69 63 39 31 67
60 64 67 -5 14 31 37 61 39 10 1 23 10 28 19 5 9 21 22 36 27 18 7 22 13 14
18 -8 5 2 12 28 20 22 6 40 16 40 20 0 5 11 19 25 32 32 31 32 41 0 33 -15 -4
-25 -2 -25 5 0 6 3 11 8 11 9 1 92 74 92 83 0 3 -8 4 -17 1 -12 -4 -10 1 7 15
39 34 60 44 60 29 0 -6 14 1 30 17 37 35 38 48 5 35 -35 -13 -31 4 7 28 22 14
36 18 44 11 14 -12 29 5 19 21 -10 16 15 40 60 61 31 14 33 17 11 12 -26 -5
-27 -4 -17 16 7 11 15 21 20 21 4 0 21 11 37 25 16 14 26 25 23 25 -14 0 -78
-30 -84 -40 -3 -5 -14 -10 -23 -10 -22 1 18 32 70 56 21 9 35 20 32 25 -2 4
13 13 35 19 21 5 50 19 63 30 l23 20 -30 -6 c-16 -4 -31 -11 -33 -16 -5 -12
-52 -10 -52 2 0 6 10 10 23 10 15 0 29 9 37 24 7 14 26 30 41 37 16 6 29 17
29 24 0 6 10 17 23 23 19 10 15 11 -23 7 -57 -7 -34 10 28 20 23 4 42 12 42
19 0 15 50 60 57 52 3 -3 24 8 46 24 52 38 58 32 13 -12 -20 -19 -36 -40 -36
-46 0 -11 22 5 88 66 20 17 46 32 58 32 13 0 30 8 40 17 12 12 31 17 61 16 48
-2 113 20 113 38 0 6 -7 8 -16 5 -8 -3 -12 -2 -9 4 3 6 15 10 26 10 10 0 19 5
19 10 0 6 11 10 24 10 14 0 27 4 30 9 3 4 17 6 30 4 14 -3 51 3 83 12 32 9 73
22 91 27 18 5 30 14 27 19 -4 5 1 6 10 3 8 -4 21 -2 28 3 6 6 35 16 62 23 28
8 52 17 55 22 4 4 28 8 55 9 28 1 55 6 61 11 6 4 33 10 58 12 26 2 50 7 53 10
4 3 18 6 32 5 l26 -1 -25 -9 c-19 -6 -14 -7 19 -3 25 2 50 12 57 22 11 14 15
14 22 4 8 -11 28 -10 116 4 93 15 109 16 118 3 8 -11 9 -11 4 4 -3 11 0 17 9
17 8 0 15 -4 15 -8z m-3862 -1591 c10 -6 10 -10 -2 -21 -9 -7 -13 -17 -10 -22
4 -6 -2 -7 -16 -3 -14 4 -20 3 -17 -2 4 -6 -26 -28 -65 -49 -52 -28 -83 -39
-114 -39 -29 0 -44 4 -44 13 0 18 -9 15 -31 -10 -10 -13 -18 -17 -19 -10 0 19
57 75 65 63 9 -16 26 -13 23 3 -2 8 1 15 6 14 5 0 12 4 15 9 6 10 156 61 181
62 8 0 21 -3 28 -8z m5423 -1990 c0 -33 -2 -65 -6 -71 -3 -5 -1 -10 6 -10 7 0
5 -6 -6 -13 -10 -8 -15 -19 -11 -25 9 -15 -36 -26 -74 -19 -16 4 -46 13 -66
22 l-37 15 29 23 c48 37 92 86 115 127 19 33 24 37 36 24 9 -8 14 -36 14 -73z
m-5706 -75 c6 -34 1 -56 -20 -107 -14 -35 -31 -76 -36 -91 -6 -15 -20 -30 -32
-34 -12 -4 -27 -14 -34 -23 -6 -9 -15 -13 -19 -9 -4 5 1 16 10 27 15 16 16 25
7 58 -15 57 12 137 67 196 36 38 50 34 57 -17z m-191 -154 c-135 -110 -180
-196 -170 -319 4 -38 11 -70 16 -71 6 -2 17 -20 26 -40 21 -52 59 -97 107
-130 51 -36 84 -44 185 -44 61 0 90 6 134 25 30 14 59 30 62 36 12 20 36 12
36 -11 0 -33 -8 -41 -78 -86 -105 -68 -238 -100 -283 -68 -13 9 -37 16 -54 16
-37 0 -105 53 -105 81 0 11 -16 53 -35 92 -72 148 -78 252 -24 382 37 87 82
137 154 170 44 20 50 21 54 7 2 -9 -10 -27 -25 -40z m-229 -499 c4 -21 10 -48
16 -61 5 -12 16 -55 24 -94 8 -39 22 -82 30 -95 9 -13 13 -29 8 -36 -4 -7 2
-5 12 3 17 14 18 13 12 -2 -4 -12 0 -21 14 -29 15 -7 19 -17 15 -32 -3 -11 -1
-26 5 -33 16 -19 -26 -6 -48 16 -63 60 -115 143 -129 205 -14 59 6 195 28 195
4 0 10 -17 13 -37z m-3327 -3692 c9 -5 25 -12 35 -15 38 -12 9 -31 -64 -42
-72 -11 -169 -41 -169 -51 0 -3 21 -3 48 0 38 5 43 4 27 -5 -39 -23 -106 -78
-131 -108 -18 -21 -35 -30 -55 -30 -16 0 -29 5 -29 11 0 20 41 69 72 85 16 8
36 30 43 47 35 83 157 143 223 108z m-278 -31 c0 -5 -9 -10 -21 -10 -17 0 -20
-4 -14 -29 5 -24 2 -30 -22 -40 -41 -17 -89 -62 -96 -91 -7 -29 -77 -139 -100
-158 -8 -7 -31 -16 -51 -19 -45 -7 -47 9 -8 63 47 64 56 85 42 94 -9 6 0 24
34 65 25 31 49 63 54 69 23 39 182 88 182 56z m596 -28 c22 -18 38 -64 27 -75
-3 -4 -12 2 -20 13 -16 22 -47 25 -90 9 -39 -15 -133 -22 -147 -10 -6 5 -22
11 -36 13 -24 4 -24 5 5 12 17 4 45 15 64 23 83 37 163 43 197 15z m334 -19
c14 -9 31 -23 38 -30 7 -7 18 -16 25 -20 21 -14 77 -83 77 -96 0 -6 -33 23
-74 66 -72 75 -109 97 -99 58 4 -16 -6 -20 -93 -31 -64 -9 -103 -19 -114 -30
-9 -9 -24 -19 -33 -23 -16 -6 -16 -4 -3 21 18 34 40 54 91 80 52 27 150 30
185 5z m425 -883 c3 -5 23 -9 43 -8 51 2 79 -18 109 -76 24 -47 24 -50 7 -63
-35 -26 -62 -16 -82 30 -24 52 -54 80 -92 83 -35 2 -50 11 -50 30 0 16 55 20
65 4z m154 -206 c-11 -14 -8 -15 35 -13 63 4 89 -21 116 -108 29 -95 28 -103
-19 -103 -47 0 -53 7 -55 67 -2 38 -8 51 -39 79 -28 26 -45 34 -75 34 -74 0
-87 47 -14 53 26 2 51 4 56 5 5 1 3 -5 -5 -14z m128 -251 c57 -6 75 -20 79
-61 2 -15 17 -57 35 -95 36 -79 31 -96 -23 -81 -27 8 -33 15 -31 35 5 65 -7
95 -50 119 -23 13 -57 26 -76 29 -38 7 -58 29 -47 56 5 13 13 16 34 11 15 -4
51 -10 79 -13z m173 -283 c33 -13 45 -39 36 -75 -6 -23 -7 -24 -49 -10 -124
40 -162 57 -186 81 -25 25 -25 26 -4 20 13 -4 30 -3 38 2 19 10 124 -1 165
-18z m1 -287 c30 -9 58 -16 62 -15 4 1 16 -2 27 -8 16 -8 18 -18 13 -64 -5
-45 -2 -59 16 -84 25 -35 28 -90 6 -98 -8 -4 -27 1 -41 11 -20 13 -24 22 -19
38 4 12 10 43 12 69 l5 47 -57 26 c-32 14 -63 25 -70 25 -19 0 -48 38 -42 55
8 19 21 19 88 -2z m99 -295 c57 -11 100 -37 100 -58 0 -18 -19 -11 -30 11 -25
46 -20 5 9 -73 17 -47 31 -96 31 -110 0 -23 -3 -25 -32 -19 -38 8 -47 31 -24
65 11 18 13 32 6 58 -8 29 -18 38 -63 56 -34 14 -59 33 -70 51 -21 36 -21 45
-2 38 8 -4 41 -12 75 -19z m-3929 -360 c1 -7 1 -19 0 -25 -1 -7 6 -24 15 -38
9 -14 14 -31 11 -39 -3 -8 7 -40 24 -72 30 -60 39 -124 16 -124 -19 0 -86 58
-102 90 -16 32 -35 138 -28 157 3 8 13 12 22 11 12 -2 16 4 14 25 -1 18 3 27
13 27 8 0 15 -6 15 -12z m-78 -738 c-4 -26 0 -46 12 -64 10 -15 22 -48 26 -74
4 -26 11 -62 15 -79 3 -19 2 -33 -3 -33 -16 0 -100 84 -116 115 -36 74 -29
141 21 198 15 17 17 17 33 -4 11 -15 15 -34 12 -59z m-80 -325 c-2 -22 4 -55
13 -73 8 -18 17 -49 20 -68 2 -18 6 -50 8 -69 6 -46 -9 -45 -57 1 -24 23 -42
54 -52 87 -19 65 -19 88 2 132 14 29 22 35 43 33 23 -3 25 -7 23 -43z m4527
-830 c57 -29 70 -48 70 -105 0 -39 -1 -40 -27 -34 -16 4 -39 14 -51 23 -13 9
-49 32 -80 52 -64 40 -74 60 -40 77 37 17 75 14 128 -13z m-4776 -194 c-6 -27
-3 -30 22 -33 21 -2 35 -13 49 -39 11 -19 30 -51 42 -70 13 -19 23 -45 24 -59
0 -25 0 -25 9 -2 17 41 60 20 60 -30 0 -15 -4 -28 -10 -28 -5 0 -10 -9 -10
-19 0 -32 -18 -34 -32 -4 -8 17 -34 38 -71 56 -60 30 -74 48 -103 133 -13 40
-14 54 -3 86 14 45 31 51 23 9z m344 -124 c6 -5 12 -15 12 -21 0 -20 39 -90
55 -98 18 -10 10 -64 -13 -90 -20 -23 -28 -23 -35 3 -4 16 -12 20 -33 17 -21
-2 -31 3 -39 19 -7 12 -24 32 -38 43 -15 12 -27 30 -27 41 0 11 -5 29 -10 39
-13 25 5 36 26 16 19 -20 34 -20 34 -2 0 8 -9 18 -20 21 -11 3 -20 13 -20 20
0 12 10 13 48 8 26 -3 53 -10 60 -16z m-384 -252 c3 -8 13 -15 22 -15 24 0 54
-29 54 -51 0 -11 9 -24 20 -31 11 -7 20 -19 20 -26 0 -7 6 -12 13 -10 37 7 88
-52 66 -78 -15 -18 -63 -18 -79 1 -7 8 -23 15 -35 15 -14 0 -38 17 -62 43 -33
35 -41 53 -46 96 -4 30 -4 58 -1 62 8 14 21 11 28 -6z m391 7 c6 -4 12 -19 13
-34 1 -21 -6 -31 -34 -48 -37 -23 -38 -40 -8 -85 8 -11 14 -29 14 -42 0 -12 5
-25 10 -28 13 -8 13 -62 -1 -70 -13 -8 -43 17 -80 68 -24 33 -29 36 -37 20
-15 -27 -42 1 -42 44 0 30 3 35 20 30 24 -6 37 10 21 26 -25 25 -12 39 31 35
42 -3 43 -2 48 32 9 55 22 69 45 52z m-425 -392 c0 -16 5 -32 10 -35 6 -4 10
6 10 22 0 54 16 59 37 12 12 -27 44 -65 82 -98 46 -40 58 -57 51 -66 -18 -21
-61 -27 -79 -12 -9 8 -27 18 -41 22 -36 11 -60 34 -81 80 -26 56 -24 126 2
109 5 -3 9 -18 9 -34z m295 -42 c14 -6 26 -16 27 -22 0 -6 2 -15 2 -21 1 -5 7
-19 13 -30 16 -28 26 -110 19 -141 l-7 -26 -27 41 c-14 22 -38 45 -52 50 -14
5 -36 19 -50 29 -21 17 -22 22 -11 36 10 12 17 14 27 5 12 -9 14 -2 14 40 0
54 4 58 45 39z m-346 -303 c6 -35 6 -35 34 -20 27 14 29 13 58 -18 69 -75 85
-87 112 -87 15 0 27 5 27 12 0 6 7 20 16 30 14 14 14 21 4 32 -22 27 -6 37 27
16 25 -15 35 -32 48 -77 10 -32 21 -65 25 -74 7 -14 4 -55 -6 -89 -3 -9 -14 1
-30 28 -41 68 -71 93 -102 86 -64 -14 -80 -14 -127 5 -27 10 -58 30 -69 44
-22 30 -45 113 -38 140 6 24 14 14 21 -28z m70 -403 c25 -28 56 -54 69 -57 28
-7 25 -22 -9 -47 -22 -16 -27 -17 -69 -2 -25 9 -53 23 -62 31 -22 19 -52 97
-45 115 4 8 8 5 12 -9 11 -35 35 -28 36 10 1 17 1 38 0 46 -2 7 1 20 5 30 6
11 9 4 13 -26 4 -30 18 -55 50 -91z m165 19 c37 -44 40 -51 51 -131 15 -98 14
-110 -4 -110 -10 0 -24 12 -32 28 -7 15 -29 49 -47 75 l-33 49 16 40 c11 29
13 44 6 51 -13 13 -15 50 -2 45 5 -1 25 -23 45 -47z m278 -115 c19 -4 30 -15
34 -34 4 -15 11 -32 16 -39 5 -6 12 -36 14 -65 3 -29 9 -68 14 -85 5 -21 5
-35 -2 -39 -12 -8 -21 1 -67 67 -40 57 -61 72 -61 41 0 -11 -7 -22 -15 -26 -8
-3 -15 -13 -16 -23 0 -14 -2 -13 -9 5 -5 12 -16 22 -25 22 -34 0 -65 31 -65
66 0 18 4 35 8 38 5 3 30 -1 57 -9 27 -8 50 -13 52 -11 2 2 -1 15 -8 29 -10
22 -8 30 11 57 13 18 25 28 29 22 3 -5 18 -12 33 -16z m-352 -199 c0 -6 7 -19
16 -28 19 -21 23 -40 34 -164 4 -49 4 -96 0 -105 -5 -8 -11 -23 -14 -32 -7
-22 -35 -24 -42 -3 -4 8 -1 22 6 30 14 17 5 67 -20 110 -27 45 -36 113 -16
121 18 7 21 36 6 65 -14 25 -3 44 16 28 8 -6 14 -16 14 -22z m-220 -32 c0 -26
20 -26 30 -1 13 35 25 33 66 -11 80 -85 82 -113 11 -113 -36 0 -48 6 -74 33
-17 17 -36 42 -42 54 -14 27 -15 66 -1 58 6 -3 10 -12 10 -20z m480 -75 c0
-20 6 -32 18 -36 34 -11 46 -21 56 -50 7 -20 17 -29 28 -26 9 2 22 -6 28 -18
15 -27 8 -35 -19 -21 -19 11 -20 9 -16 -16 13 -83 14 -143 4 -143 -17 0 -66
57 -96 113 -26 48 -28 49 -31 23 -3 -23 -7 -26 -25 -19 -12 4 -37 7 -56 8 -21
0 -36 6 -39 15 -3 8 -11 21 -19 28 -11 12 -11 17 -1 30 12 13 13 13 16 -6 4
-25 28 -28 56 -7 14 11 24 12 39 3 21 -11 21 -15 0 78 -3 15 1 23 16 27 13 3
21 13 21 26 0 12 5 21 10 21 6 0 10 -14 10 -30z m-453 -257 c10 -16 28 -38 40
-51 22 -22 22 -22 33 -2 6 10 9 25 8 32 -2 8 8 13 26 13 25 0 31 -5 38 -32 5
-18 18 -39 29 -47 13 -9 16 -16 10 -21 -6 -3 -11 -24 -11 -46 0 -32 4 -39 19
-39 23 0 51 -25 51 -47 0 -11 -6 -14 -24 -9 -18 4 -25 1 -29 -15 -3 -13 -12
-19 -23 -17 -12 2 -20 -4 -22 -17 -5 -21 -19 -35 -39 -35 -18 0 -16 25 2 40
21 17 19 31 -12 99 -26 58 -28 59 -60 54 -34 -6 -73 17 -73 42 0 7 -9 20 -20
30 -11 10 -20 26 -20 37 0 21 11 23 28 6 9 -9 12 -5 12 20 0 39 14 41 37 5z
m388 -113 c10 -11 24 -20 31 -20 7 0 24 -14 37 -32 21 -26 28 -29 40 -20 11
10 16 7 24 -11 19 -43 -10 -66 -35 -27 -11 18 -42 28 -42 14 0 -3 11 -19 25
-35 17 -21 23 -38 20 -57 -17 -109 -15 -104 -32 -91 -8 7 -25 18 -36 24 -14 7
-24 25 -30 53 -4 23 -19 54 -33 69 -38 42 -27 82 21 75 14 -2 10 3 -12 17 -34
21 -43 45 -20 54 20 9 23 8 42 -13z m-340 -230 c4 -6 2 -17 -4 -24 -8 -9 -6
-23 8 -51 12 -25 21 -34 26 -25 4 7 20 10 36 8 16 -3 29 -1 29 4 0 4 5 8 12 8
6 0 4 -7 -5 -18 -10 -10 -17 -24 -17 -30 0 -6 -9 -14 -20 -17 -11 -3 -20 -12
-20 -19 0 -7 9 -25 20 -39 34 -43 25 -62 -30 -59 -8 0 -18 -4 -21 -10 -10 -15
-39 -2 -39 17 0 9 -9 29 -21 44 -12 16 -29 53 -39 82 l-17 54 28 3 c20 2 26 7
22 18 -13 34 35 82 52 54z m313 -135 c29 -30 62 -55 73 -55 22 0 26 -28 5 -36
-8 -3 -26 2 -41 12 -38 25 -45 7 -10 -25 28 -24 30 -31 27 -76 -2 -28 -8 -54
-12 -58 -22 -24 -78 34 -94 96 -3 15 -13 27 -21 27 -11 0 -15 11 -14 38 0 20
3 31 6 25 9 -24 28 -13 39 23 l11 35 -28 -6 c-33 -8 -50 15 -29 40 20 24 32
18 88 -40z m-374 -228 c-3 -8 2 -19 10 -26 9 -7 18 -28 22 -47 3 -19 10 -37
15 -40 5 -3 9 -14 9 -25 0 -11 7 -31 16 -44 10 -16 14 -34 9 -54 -3 -17 -2
-32 4 -36 15 -9 14 -35 -1 -35 -27 1 -106 86 -127 137 -27 67 -27 87 4 140 24
40 51 61 39 30z m190 -29 c5 -24 10 -29 26 -25 22 6 50 -16 50 -38 0 -8 11
-26 25 -41 29 -32 32 -59 8 -73 -11 -7 -14 -14 -8 -18 23 -18 57 -77 62 -109
5 -30 3 -33 -12 -28 -24 10 -38 -16 -17 -32 13 -10 14 -15 5 -25 -10 -10 -17
-3 -32 31 -11 24 -29 51 -41 60 -15 12 -23 31 -27 74 -4 34 -2 61 4 64 6 4 13
26 16 50 5 43 5 43 -23 37 -20 -4 -29 -2 -33 9 -4 9 -17 16 -29 16 -19 0 -23
6 -25 32 -5 60 39 74 51 16z m-238 -310 c-14 -20 -14 -24 0 -40 9 -10 14 -26
11 -38 -5 -21 12 -70 26 -70 4 0 7 -13 7 -28 0 -15 6 -34 12 -40 10 -10 10
-17 0 -32 -10 -16 -9 -21 6 -29 10 -5 27 -28 37 -50 14 -31 24 -41 42 -41 17
0 23 -6 23 -21 0 -14 -5 -19 -14 -16 -8 3 -17 -1 -20 -9 -9 -24 -33 -15 -55
22 -12 19 -21 41 -21 47 0 7 -25 38 -55 70 -30 31 -57 69 -61 85 -3 15 -10 42
-15 61 -9 38 3 63 27 54 8 -3 14 -1 14 5 0 6 -5 12 -11 14 -7 2 -6 12 3 28 23
43 29 50 44 50 13 0 13 -3 0 -22z m3173 -32 c119 8 147 3 155 -31 7 -27 17
-30 45 -16 9 5 23 6 30 1 10 -6 9 -12 -8 -29 -28 -28 -66 -28 -76 2 -7 21 -8
20 -12 -7 -3 -20 0 -32 11 -38 37 -20 -3 -28 -142 -28 -228 1 -413 15 -450 34
-17 9 -44 16 -60 16 -34 0 -123 25 -169 48 -29 15 -30 17 -14 28 22 16 163 30
188 19 23 -10 73 -10 97 0 11 5 21 3 26 -5 6 -10 15 -10 44 1 30 11 42 11 73
0 27 -10 38 -11 41 -2 5 15 45 14 60 -1 9 -9 12 -8 12 5 0 14 4 15 26 7 15 -6
67 -7 123 -4z m1059 -48 c17 2 32 1 32 -4 0 -5 18 -9 40 -9 22 0 40 3 40 7 0
5 18 8 40 8 30 0 40 -4 40 -16 0 -12 9 -15 44 -13 24 2 50 -2 58 -8 7 -6 40
-13 72 -17 67 -7 77 -12 56 -27 -11 -8 -8 -9 10 -3 14 3 32 13 41 20 21 19 33
18 55 -7 12 -14 25 -18 41 -14 21 5 23 2 23 -28 l0 -34 -74 -6 c-75 -5 -140
-27 -103 -35 20 -4 23 -21 5 -23 -7 -1 -3 -4 10 -7 37 -11 6 -41 -45 -44 -26
-2 -43 -8 -43 -15 0 -21 -37 -15 -43 6 -4 18 -13 19 -86 16 -71 -4 -82 -2 -94
15 -9 13 -31 22 -61 26 -36 5 -56 16 -86 45 -22 22 -36 39 -30 39 5 0 10 7 10
15 0 8 5 15 11 15 5 0 7 5 3 11 -4 7 -9 8 -13 1 -8 -14 -153 -25 -170 -13 -21
14 1 61 29 61 11 0 26 10 35 23 14 21 20 23 67 16 29 -3 68 -4 86 -1z m-3958
-77 c16 -31 12 -51 -10 -51 -27 0 -25 -7 10 -40 28 -26 30 -32 30 -105 l0 -77
-41 44 c-61 65 -72 92 -65 156 4 30 11 63 17 73 13 25 45 24 59 0z m-300 -158
c0 -14 -15 -29 -34 -36 -15 -6 -16 -10 -5 -23 7 -9 16 -37 20 -62 8 -58 40
-141 68 -181 12 -16 21 -45 21 -65 0 -31 3 -36 24 -36 18 0 33 -12 55 -46 31
-45 39 -74 22 -74 -5 0 -18 11 -29 25 -23 29 -32 32 -32 10 0 -23 -23 -18 -60
15 -31 27 -33 31 -19 43 15 11 14 15 -14 42 -16 17 -49 56 -73 89 -37 49 -44
65 -44 105 0 69 37 180 64 191 27 11 36 12 36 3z m155 -243 c9 -16 20 -30 26
-30 28 0 48 -117 31 -177 -7 -21 -9 -20 -41 19 -46 55 -63 107 -55 169 8 56
17 61 39 19z m-210 -108 c3 -11 17 -24 30 -30 14 -6 25 -19 25 -27 0 -13 -6
-12 -39 5 -22 11 -47 17 -55 14 -13 -5 -12 -10 4 -32 12 -16 22 -50 25 -82 3
-30 8 -90 12 -133 5 -42 5 -77 1 -77 -3 0 -24 21 -47 46 -50 57 -61 113 -37
189 9 28 16 65 16 80 0 50 52 87 65 47z m45 -226 c0 -8 7 -20 16 -27 15 -12
16 -10 9 19 l-7 34 32 -17 c29 -15 32 -20 27 -53 -3 -24 2 -50 13 -72 17 -34
42 -141 34 -149 -5 -5 -25 6 -74 42 -40 30 -46 39 -52 83 -12 90 -15 163 -6
158 4 -3 8 -11 8 -18z m-105 -206 c14 -15 16 -29 11 -65 -4 -30 -1 -58 8 -79
13 -32 9 -107 -7 -123 -12 -12 -37 20 -57 73 -24 65 -26 117 -4 138 9 10 13
24 9 36 -13 39 11 52 40 20z m113 -82 c7 -7 12 -22 12 -35 0 -18 -6 -23 -25
-23 -27 0 -34 -14 -11 -23 8 -3 24 -27 36 -54 17 -37 20 -60 16 -97 -3 -32 -1
-55 7 -65 8 -11 1 -9 -23 5 -19 11 -45 36 -58 55 -22 31 -23 40 -17 114 4 44
11 82 15 85 4 3 10 15 14 28 8 25 17 27 34 10z m-83 -342 c22 -32 16 -82 -7
-78 -24 4 -23 -5 7 -53 28 -46 34 -125 11 -144 -18 -15 -50 -1 -61 26 -25 66
-23 191 3 186 11 -3 16 19 15 70 0 24 14 21 32 -7z m197 -195 c23 -20 30 -22
43 -11 13 11 15 10 9 -6 -4 -10 -13 -24 -21 -31 -11 -8 -14 -26 -11 -58 3 -37
1 -44 -12 -39 -8 3 -33 13 -55 20 -22 8 -50 22 -63 32 -22 17 -22 19 -7 50 19
38 23 38 75 12 71 -36 85 -13 14 25 -21 12 -49 27 -62 34 -12 6 -20 16 -17 21
8 12 73 -17 107 -49z m-269 -191 c7 -28 -7 -42 -36 -34 -15 3 -27 3 -27 0 0
-3 16 -28 35 -55 30 -41 35 -56 35 -104 0 -46 -3 -55 -20 -60 -45 -12 -92 95
-75 172 8 37 35 93 48 103 15 9 34 -1 40 -22z m4328 4 c13 -16 4 -18 -73 -14
-37 1 -48 -2 -48 -13 0 -9 14 -19 33 -23 l32 -8 -35 -7 c-33 -8 21 -6 155 5
28 2 38 2 23 -1 -18 -3 -28 -12 -33 -31 -7 -25 -8 -25 -15 -7 -7 19 -7 19 -21
-3 -12 -19 -23 -22 -75 -22 -34 0 -75 5 -93 11 -43 15 -43 59 -1 99 16 15 31
24 32 19 2 -5 20 -6 40 -3 21 4 35 10 33 14 -8 14 34 -1 46 -16z m-4235 -540
c19 -5 74 -104 74 -133 0 -16 -27 -13 -34 4 -3 8 -12 15 -20 15 -36 0 -106 44
-118 74 -6 17 -13 34 -16 39 -4 8 83 9 114 1z m-120 -333 c5 -5 20 -11 33 -13
31 -4 56 -47 65 -108 l7 -45 -21 23 c-13 13 -33 22 -51 22 l-30 0 35 -34 c30
-27 48 -66 32 -66 -16 0 -76 68 -76 85 0 12 -9 34 -20 48 -38 49 -16 127 26
88z m1684 -506 c-22 -711 -31 -970 -45 -1334 -8 -211 -12 -388 -9 -393 3 -4
-4 -8 -15 -8 -20 0 -20 4 -16 138 3 75 10 281 15 457 15 441 38 1002 50 1170
5 77 10 176 10 220 0 50 4 75 9 70 6 -6 7 -124 1 -320z m-1743 145 c41 -19 73
-57 73 -85 0 -8 5 -24 12 -35 16 -26 3 -37 -20 -17 -10 10 -29 17 -42 17 l-23
0 20 -22 c11 -13 23 -31 27 -41 4 -14 -4 -11 -34 13 -22 17 -37 36 -34 42 4 5
-6 34 -21 63 -26 48 -29 85 -7 85 4 0 26 -9 49 -20z m-276 -140 c23 -13 25
-33 4 -50 -21 -17 -19 -77 3 -105 16 -20 17 -30 8 -79 -6 -31 -15 -56 -22 -56
-6 0 -23 11 -38 25 -22 20 -26 33 -26 77 0 72 17 131 36 124 16 -6 19 5 4 20
-9 9 -3 54 7 54 2 0 13 -5 24 -10z m169 -206 c0 -12 6 -15 24 -10 15 4 29 0
40 -13 17 -19 48 -120 40 -133 -3 -4 -20 2 -39 13 -30 18 -35 19 -35 5 0 -9
-7 -16 -15 -16 -9 0 -15 9 -15 23 0 12 -8 36 -19 52 -21 35 -18 95 5 95 8 0
14 -7 14 -16z m2774 -842 c8 -15 18 -46 22 -67 10 -56 63 -177 85 -196 24 -21
24 -29 0 -29 -10 0 -21 9 -24 20 -5 18 -12 20 -59 16 -29 -2 -74 -7 -99 -11
-42 -7 -47 -5 -67 20 -29 36 -28 50 8 132 20 45 45 81 73 105 23 21 43 38 44
38 1 0 9 -13 17 -28z m-2438 -159 c3 -10 17 -40 31 -67 23 -45 24 -51 9 -61
-9 -7 -16 -17 -16 -23 0 -6 -5 -12 -11 -14 -5 -2 -11 -11 -13 -20 -4 -32 -13
-29 -42 14 -16 24 -34 47 -41 51 -14 9 -37 86 -29 95 12 11 47 -32 58 -72 13
-45 24 -57 44 -49 11 4 10 8 -3 21 -30 30 -41 70 -29 108 12 36 33 45 42 17z
m-281 -363 c3 -5 32 -22 63 -36 31 -14 68 -38 80 -53 l24 -26 -5 27 c-2 15 0
33 5 40 12 18 38 -17 38 -50 0 -13 14 -40 30 -59 17 -18 30 -38 30 -43 0 -6 6
-10 14 -10 7 0 19 -7 26 -15 10 -13 9 -15 -8 -15 -11 0 -31 14 -44 30 -68 89
-57 83 -149 85 -46 2 -91 6 -100 9 -15 7 -42 110 -31 121 8 8 20 6 27 -5z
m18826 -155 c56 -9 68 -13 37 -12 -40 2 -48 -1 -48 -15 0 -10 -4 -18 -10 -18
-5 0 -10 9 -10 20 0 27 -6 25 -38 -8 -40 -42 -71 -52 -125 -40 -56 11 -67 32
-26 47 17 6 28 15 24 20 -8 13 65 31 96 23 8 -2 53 -10 100 -17z m-15909 -30
c2 -12 11 -20 23 -20 16 0 20 -7 22 -33 2 -38 13 -58 13 -24 0 13 6 22 15 22
8 0 15 -8 15 -17 0 -10 14 -56 30 -103 17 -46 30 -96 29 -110 0 -23 -1 -23 -9
-5 -5 11 -9 16 -9 11 -1 -5 -10 3 -22 18 -11 14 -17 30 -14 36 3 5 1 10 -5 10
-8 0 -10 -10 -6 -27 9 -39 96 -213 107 -213 5 0 9 -5 9 -11 0 -20 126 -200
215 -309 48 -58 154 -178 237 -268 83 -90 149 -165 147 -167 -2 -2 -69 60
-149 138 -286 279 -516 590 -565 762 -10 33 -34 107 -55 165 -40 108 -60 193
-42 175 6 -5 12 -19 14 -30z m-2878 16 c3 -5 -5 -12 -18 -15 -31 -8 -37 -26
-25 -72 6 -20 8 -51 5 -69 -6 -30 -3 -34 56 -71 35 -21 74 -39 88 -39 46 0 35
-30 -16 -47 -56 -18 -112 -8 -141 24 -27 30 -32 251 -7 279 18 20 49 25 58 10z
m14 -353 c-3 -7 -18 -15 -34 -18 -32 -6 -31 -2 -22 -149 3 -50 5 -55 31 -62
16 -4 35 -13 43 -20 8 -7 27 -12 42 -13 43 -2 40 -32 -5 -51 -50 -21 -109 -10
-134 25 -15 22 -16 39 -10 153 8 138 12 147 64 147 19 0 27 -4 25 -12z m1999
-264 c3 -8 12 -13 19 -10 11 4 11 0 1 -22 -14 -32 -38 -51 -92 -74 -57 -24
-242 -25 -307 -1 -27 9 -48 20 -48 24 0 7 8 10 99 35 29 8 59 18 65 22 11 7
191 39 234 41 12 0 25 -6 29 -15z m15649 -338 c-15 -136 -42 -198 -97 -220
-47 -19 -68 -20 -106 -4 -15 6 -31 11 -35 10 -4 -1 -10 7 -13 18 -4 11 -12 20
-20 20 -9 0 -12 10 -10 31 3 18 6 33 7 34 2 1 38 32 81 68 42 36 86 69 97 72
11 4 20 11 20 17 0 6 3 9 6 6 3 -4 17 0 31 7 39 20 46 10 39 -59z m-17668
-107 c1 -8 -8 -19 -20 -24 -22 -9 -23 -15 -23 -109 l1 -99 39 -11 c29 -8 42
-19 49 -38 19 -53 -11 -71 -79 -47 -22 8 -36 23 -48 54 -16 37 -16 53 -6 136
6 52 15 102 20 111 24 44 60 59 67 27z m133 -185 c10 -12 10 -20 2 -33 -9 -14
-7 -22 7 -37 10 -11 21 -42 25 -71 6 -45 4 -52 -12 -56 -16 -4 -15 -5 3 -6 26
-1 44 -20 43 -46 0 -11 -3 -14 -6 -7 -2 6 -11 12 -18 12 -8 0 -35 28 -61 61
-54 70 -63 122 -30 172 21 31 29 33 47 11z"/>
<path d="M10473 21260 c-114 -6 -158 -13 -227 -35 -47 -16 -87 -34 -90 -42 -3
-7 -1 -13 4 -13 6 0 10 5 10 11 0 6 5 9 11 7 6 -2 10 -7 9 -12 -1 -5 4 -13 12
-17 8 -6 1 -9 -22 -9 -26 0 -31 -3 -20 -10 22 -14 9 -20 -50 -24 -28 -2 -57
-9 -63 -15 -6 -6 -20 -11 -31 -11 -17 0 -18 -2 -6 -10 9 -6 18 -6 24 0 6 6 30
9 56 9 25 -1 37 -3 28 -6 -10 -2 -18 -9 -18 -14 0 -5 -6 -9 -12 -9 -15 0 -68
-39 -54 -40 18 0 81 25 91 36 6 7 21 15 35 19 19 5 21 4 10 -4 -13 -9 -12 -11
5 -12 16 -1 16 -2 -5 -8 -23 -7 -21 -8 15 -14 22 -4 80 -5 129 -3 49 3 101 0
115 -5 15 -6 27 -6 29 -1 1 5 25 6 55 1 29 -4 87 -10 130 -14 54 -5 75 -10 71
-18 -5 -9 -4 -9 5 -2 13 13 81 7 81 -7 0 -5 -4 -7 -9 -3 -5 3 -12 1 -16 -5 -3
-5 11 -12 34 -16 22 -4 46 -12 52 -20 6 -7 17 -10 25 -7 9 3 22 -3 30 -16 19
-27 71 -54 86 -45 7 4 8 3 4 -4 -4 -8 0 -12 12 -12 10 0 40 -20 67 -45 50 -46
64 -51 46 -18 -7 15 -7 20 4 20 7 0 11 -6 9 -12 -5 -12 32 -65 46 -65 13 0 20
29 8 36 -7 4 -8 3 -4 -4 4 -7 5 -12 2 -12 -3 0 -10 9 -16 20 -9 17 -8 19 7 13
10 -3 23 -10 29 -15 7 -5 16 -2 24 7 11 13 9 19 -6 37 -14 16 -9 15 19 -6 21
-16 37 -37 37 -48 0 -14 5 -18 15 -14 8 3 21 9 29 12 16 6 25 -22 27 -91 1
-27 4 -39 6 -25 3 14 8 29 13 34 5 5 4 20 -1 34 -5 14 -8 31 -5 38 3 7 -5 25
-16 39 l-21 27 31 -16 c32 -16 50 -36 34 -36 -6 0 -1 -17 9 -37 28 -55 42 -64
25 -15 -11 31 -12 42 -3 42 24 0 57 -43 57 -75 0 -23 32 -92 36 -79 5 11 -16
100 -34 144 -5 14 -22 36 -36 49 -38 36 -32 46 9 15 52 -39 53 -23 4 30 -30
32 -49 44 -61 40 -13 -4 -16 -1 -12 9 3 8 -1 17 -9 20 -11 4 -13 0 -10 -14 3
-10 0 -19 -6 -19 -6 0 -11 9 -11 21 0 14 -10 24 -30 32 -16 6 -30 15 -30 18 0
4 -15 11 -32 14 -18 4 -42 14 -53 21 -11 8 -25 14 -32 14 -7 0 -34 10 -59 21
-35 17 -50 19 -67 11 -44 -21 -90 -32 -112 -26 -13 3 -26 1 -29 -5 -4 -6 0
-11 10 -11 13 0 15 -3 7 -11 -8 -8 -17 -5 -32 10 -25 25 -14 34 49 37 25 1 50
2 55 3 6 1 16 10 23 22 12 18 11 19 -7 10 -24 -14 -71 -14 -91 -1 -13 9 -13
10 0 11 23 2 -50 20 -95 23 -34 3 -37 2 -17 -7 24 -11 25 -28 2 -35 -7 -3 -10
0 -6 7 5 7 -2 11 -21 10 -17 -1 -21 -3 -10 -6 9 -2 17 -11 17 -18 0 -7 8 -16
18 -18 9 -3 2 -5 -16 -6 -20 -1 -31 3 -27 9 3 6 -5 14 -19 20 -34 13 -33 37 2
44 15 2 -10 3 -55 1 -45 -3 -85 0 -88 5 -6 10 63 46 72 37 3 -3 -10 -13 -28
-22 l-34 -15 30 5 c17 3 44 16 60 28 25 18 43 22 104 21 54 0 67 2 50 9 -31
12 -117 10 -172 -3 -76 -19 -82 -19 -97 -10 -17 11 -18 10 48 40 28 13 52 28
52 33 0 5 -7 4 -15 -3 -10 -8 -19 -9 -27 -2 -8 5 -22 6 -33 1 -11 -4 -31 -7
-45 -7 -16 0 -19 2 -7 5 9 2 17 10 17 18 0 7 20 17 48 23 42 9 43 10 12 9 -19
0 -99 -3 -177 -7z"/>
<path d="M10440 20549 c-14 -4 -41 -8 -60 -8 -19 -1 -60 -11 -90 -22 -30 -10
-93 -32 -140 -46 -47 -15 -87 -30 -90 -34 -3 -4 -14 -9 -25 -12 -11 -2 9 -3
45 -2 43 2 92 13 145 33 113 43 138 49 245 61 158 19 329 -7 465 -68 89 -40
193 -125 244 -198 27 -40 83 -201 74 -217 -3 -7 -1 -6 7 1 11 10 11 23 1 70
-48 215 -232 369 -512 428 -75 16 -271 25 -309 14z"/>
<path d="M10490 20441 c0 -5 -16 -8 -35 -7 -20 2 -54 -1 -78 -6 -59 -14 -137
-17 -137 -7 0 5 -5 9 -11 9 -8 0 -8 -4 0 -14 17 -21 -33 -45 -101 -50 -29 -2
-70 -7 -91 -11 -34 -7 -36 -9 -20 -21 10 -7 30 -14 46 -14 16 0 27 -5 27 -14
0 -8 14 -17 31 -21 41 -9 48 -33 18 -56 l-24 -18 42 2 c42 1 72 -19 73 -49 0
-7 12 -15 27 -19 35 -8 112 -57 113 -70 0 -11 35 -45 46 -45 3 0 2 5 -1 11 -4
6 0 9 8 7 9 -2 15 2 14 7 -1 6 -5 9 -9 8 -5 -2 -8 2 -8 8 0 6 10 9 23 7 13 -2
22 -10 22 -20 0 -9 4 -20 8 -25 5 -4 7 -2 5 6 -6 29 28 21 67 -14 22 -20 58
-44 80 -55 37 -17 38 -18 13 -19 -14 -1 -29 5 -31 12 -4 9 -8 8 -16 -3 -7 -11
-7 -16 2 -19 7 -2 18 -11 26 -20 10 -12 15 -13 18 -3 6 14 33 16 33 2 0 -5 -6
-10 -12 -10 -7 0 -2 -6 12 -13 14 -7 26 -10 28 -6 5 13 41 -3 45 -20 4 -14 5
-14 6 2 1 18 12 22 25 10 3 -4 12 -8 19 -10 75 -17 119 -25 154 -28 23 -2 50
-8 62 -14 11 -6 35 -13 53 -16 48 -6 98 -22 116 -37 12 -10 16 -10 19 -1 3 8
13 3 28 -13 13 -14 26 -21 29 -16 8 14 -6 122 -16 116 -5 -3 -8 0 -7 7 2 8 -7
33 -19 57 -13 23 -20 48 -16 54 4 7 3 8 -4 4 -7 -4 -12 -1 -12 9 0 9 -8 30
-17 46 -16 26 -16 31 -3 39 10 7 11 10 3 10 -7 0 -13 5 -13 11 0 6 -7 17 -15
26 -9 8 -13 23 -11 32 7 21 -8 45 -25 39 -7 -2 -20 9 -29 26 -8 17 -21 31 -27
31 -7 0 -23 10 -35 22 -63 60 -80 73 -89 67 -6 -3 -10 0 -8 7 4 34 -1 41 -17
24 -9 -9 -23 -14 -31 -11 -8 3 -19 6 -24 6 -5 0 -9 7 -9 15 0 8 -6 12 -14 9
-7 -3 -16 2 -19 10 -4 9 -15 13 -28 11 -25 -5 -120 13 -133 26 -15 14 -26 11
-26 -7 0 -14 -3 -14 -15 -4 -9 7 -27 10 -45 7 -16 -4 -32 -2 -35 3 -8 13 -25
13 -25 1z m460 -289 c0 -8 14 -28 31 -45 17 -17 33 -42 34 -56 11 -85 18 -111
33 -111 12 0 13 -3 5 -11 -9 -9 -8 -19 3 -42 9 -16 11 -26 5 -23 -6 4 -11 2
-11 -5 0 -7 -8 -9 -22 -5 -13 3 -58 11 -102 17 -43 5 -100 18 -128 29 -28 11
-65 17 -86 15 -35 -4 -35 -4 -7 4 17 5 26 10 20 11 -5 1 -18 3 -28 5 -31 6
-32 15 -3 15 86 0 206 112 206 194 0 19 5 24 25 22 14 0 25 -7 25 -14z"/>
<path d="M7793 20280 c-12 -5 -45 -10 -73 -11 -44 -2 -51 -6 -56 -26 -4 -13
-12 -23 -20 -23 -8 0 -14 -4 -14 -10 0 -5 4 -10 9 -10 14 0 19 -50 6 -64 -16
-16 -29 -56 -18 -56 5 0 14 5 21 12 8 8 12 9 12 1 0 -6 -6 -13 -12 -16 -7 -2
-9 -8 -5 -13 4 -4 16 -4 25 2 33 19 100 17 131 -5 l28 -21 5 75 c5 81 -1 175
-11 174 -3 0 -16 -4 -28 -9z"/>
<path d="M12520 19803 c0 -5 -10 -13 -23 -19 -65 -33 -87 -46 -87 -53 0 -13
-45 -61 -57 -61 -6 0 -13 -8 -17 -17 -3 -10 -9 -25 -14 -33 -49 -80 -73 -162
-52 -175 6 -4 8 -15 5 -25 -9 -28 16 -36 36 -12 9 12 23 22 29 22 7 0 10 7 6
15 -3 8 1 18 8 22 7 5 16 15 20 23 18 39 36 64 36 51 0 -11 3 -11 15 -1 9 7
14 19 11 27 -3 7 -2 13 3 13 17 0 92 78 79 83 -9 3 -4 13 15 32 19 20 24 31
16 36 -8 5 -5 11 10 18 21 11 21 13 4 36 -17 23 -43 34 -43 18z"/>
<path d="M11240 18403 c-92 -34 -172 -91 -178 -127 -3 -15 1 -17 21 -12 39 9
286 -20 305 -37 9 -8 27 -23 40 -33 13 -10 43 -48 67 -84 43 -65 105 -130 124
-130 6 0 16 -8 23 -18 7 -10 45 -39 83 -65 39 -26 90 -62 115 -82 25 -19 68
-42 95 -51 28 -10 78 -32 112 -51 131 -70 152 -43 188 237 9 69 18 135 21 148
6 27 -16 30 -23 2 -3 -11 -9 -20 -14 -20 -5 0 -9 -7 -9 -15 0 -19 -49 -70 -58
-61 -3 4 -1 10 5 14 13 9 -1 52 -17 52 -6 0 -8 -4 -5 -10 3 -5 -1 -10 -9 -10
-10 0 -13 6 -9 16 6 16 -33 64 -53 64 -8 0 -10 8 -6 22 3 12 1 19 -5 15 -11
-7 -45 28 -36 37 4 3 1 6 -5 6 -17 0 -9 -35 13 -60 19 -21 11 -27 -15 -10 -9
5 -19 5 -27 -1 -6 -6 -22 -8 -34 -4 -14 5 -19 4 -15 -4 4 -7 0 -10 -11 -9 -22
3 -114 -12 -128 -20 -14 -9 -45 -13 -45 -7 0 3 11 10 25 15 14 5 25 14 25 20
0 6 -5 8 -11 5 -24 -15 -87 -15 -102 0 -11 10 -18 12 -23 4 -5 -8 -9 -7 -14 2
-7 11 -25 16 -70 18 -10 1 -20 18 -28 46 -16 62 -53 114 -114 164 -48 39 -54
41 -117 40 -36 0 -73 -3 -81 -6z"/>
<path d="M10079 17727 c-15 -5 -34 -25 -42 -43 l-16 -33 35 6 c24 4 40 1 53
-11 10 -9 25 -14 35 -10 9 4 16 1 16 -6 0 -8 9 -10 25 -6 19 5 25 2 26 -11 0
-11 3 -13 6 -5 6 16 42 16 49 -1 3 -8 17 -14 32 -14 45 0 84 -12 76 -25 -5 -8
-1 -9 11 -4 34 13 228 -21 345 -61 25 -8 50 -16 55 -17 48 -12 65 -20 65 -30
0 -8 11 -11 30 -8 18 2 48 -4 75 -17 25 -11 49 -21 54 -21 5 0 16 -6 23 -13 7
-8 37 -22 66 -31 29 -10 59 -24 66 -32 8 -8 19 -14 24 -14 5 0 27 -13 48 -28
21 -16 44 -30 49 -32 31 -9 43 -15 73 -37 17 -13 37 -21 42 -18 6 3 10 -1 10
-9 0 -10 6 -13 18 -9 15 6 16 5 2 -12 -14 -17 -13 -17 9 -10 20 6 23 5 17 -10
-5 -14 -2 -17 19 -13 13 3 22 1 19 -3 -5 -8 13 -13 43 -12 7 1 11 -3 8 -7 -3
-4 -2 -23 2 -40 l6 -33 14 27 c17 33 43 35 36 4 -3 -17 -2 -19 5 -9 8 11 15
10 45 -4 38 -18 53 -40 35 -51 -7 -5 -7 -8 1 -13 7 -5 6 -20 -5 -49 -17 -51
-48 -89 -59 -72 -8 12 -55 -28 -55 -47 0 -16 -22 -17 -38 -1 -8 8 -12 9 -12 1
0 -6 6 -13 13 -16 9 -3 9 -7 -2 -20 -7 -9 -17 -14 -22 -11 -5 3 -9 0 -9 -7 0
-6 8 -9 19 -6 16 4 18 0 14 -24 -3 -22 0 -29 12 -29 11 0 15 5 12 14 -3 9 4
21 19 30 13 9 24 12 24 6 0 -5 -5 -10 -12 -10 -9 0 -9 -3 -1 -11 9 -9 6 -17
-12 -31 -29 -23 -55 -14 -56 21 0 22 -2 23 -8 7 -5 -13 -10 -16 -15 -8 -3 6
-21 9 -38 7 -21 -3 -39 2 -50 12 -10 9 -35 19 -56 23 -24 4 -36 11 -34 20 4
17 -16 30 -45 30 -13 0 -31 8 -41 18 -10 9 -31 18 -46 20 -16 2 -58 17 -95 35
-36 18 -70 32 -76 32 -5 0 -15 4 -22 8 -6 4 -14 3 -17 -2 -3 -5 8 -14 24 -20
17 -5 30 -15 30 -21 0 -6 4 -8 10 -5 5 3 21 -6 36 -20 14 -14 30 -23 35 -20 5
4 9 2 9 -3 0 -6 25 -18 55 -28 31 -9 58 -21 61 -25 3 -5 21 -9 40 -9 19 0 34
-4 34 -8 0 -4 15 -15 33 -23 17 -9 46 -23 62 -32 57 -31 97 -47 106 -41 5 3 9
0 9 -5 0 -6 -5 -11 -10 -11 -7 0 -7 -6 -1 -19 8 -15 7 -20 -6 -25 -9 -4 -13
-9 -10 -13 4 -3 13 0 22 7 9 7 19 10 22 6 4 -4 1 -12 -7 -17 -11 -8 -9 -9 9
-4 20 6 22 5 13 -11 -7 -13 -4 -23 17 -42 l26 -25 -30 7 c-22 5 -26 4 -15 -4
8 -5 24 -10 35 -11 17 -1 16 -2 -5 -9 l-25 -8 23 -7 c26 -9 29 -25 5 -26 -10
0 -13 -3 -6 -5 7 -3 21 0 33 6 15 8 25 8 34 1 15 -12 67 -5 106 16 14 7 30 13
35 13 6 1 18 11 27 23 9 12 29 36 43 54 19 23 26 45 28 81 1 28 4 49 7 47 3
-2 5 11 5 29 -1 30 1 33 27 34 32 1 71 11 78 21 3 4 21 19 41 34 43 33 83 108
73 139 -9 29 -34 55 -34 36 0 -8 -4 -6 -11 5 -5 9 -7 22 -4 27 3 6 -1 10 -10
10 -12 0 -15 6 -10 20 4 14 -3 28 -24 49 -16 16 -27 32 -23 36 4 4 -1 13 -12
20 -14 10 -17 21 -12 41 7 25 5 26 -21 19 -15 -3 -29 -11 -31 -16 -2 -5 -11
-9 -19 -9 -14 0 -14 3 2 20 31 34 -7 76 -47 51 -27 -17 -38 -3 -14 15 14 10
17 17 10 24 -7 7 -19 4 -38 -11 -29 -23 -56 -20 -56 6 0 17 -22 15 -67 -7 -17
-8 -25 -7 -37 5 -9 9 -16 21 -16 27 0 8 -7 9 -17 5 -46 -19 -57 -17 -28 5 17
12 22 20 13 16 -21 -6 -24 10 -4 21 12 7 12 10 0 21 -12 11 -14 9 -14 -8 0
-21 -16 -26 -40 -10 -9 5 -20 5 -30 -2 -8 -6 3 6 24 26 21 20 37 39 34 42 -10
9 -58 -19 -59 -35 0 -10 -4 -7 -10 7 -9 24 -29 22 -29 -2 0 -16 -37 -28 -45
-16 -3 5 3 15 12 22 20 14 47 68 35 68 -10 -1 -39 -23 -40 -32 -1 -5 -2 -12
-2 -16 0 -5 -16 -16 -36 -25 -19 -10 -33 -13 -30 -8 4 5 2 12 -3 15 -5 4 -12
2 -16 -4 -11 -18 -23 -11 -18 10 3 11 10 20 15 20 5 0 6 9 3 20 -4 11 -2 20 4
20 6 0 8 7 5 15 -4 8 -15 15 -25 15 -16 0 -18 -5 -13 -27 4 -20 3 -24 -4 -14
-7 10 -21 12 -47 8 -30 -5 -36 -3 -31 8 3 9 0 15 -8 15 -8 0 -16 -6 -19 -12
-3 -10 -8 -10 -16 -2 -10 9 -8 15 4 28 15 15 15 16 0 16 -8 0 -18 -7 -21 -15
-7 -17 -44 -21 -44 -5 0 6 -11 10 -24 10 -14 0 -28 5 -32 11 -3 6 -15 9 -25 6
-11 -3 -19 0 -19 5 0 6 -6 6 -14 -1 -12 -10 -19 -8 -35 8 -26 26 -41 27 -48 1
-6 -21 -23 -28 -23 -9 0 11 -28 9 -62 -6 -11 -4 -18 -3 -18 4 0 6 9 11 21 11
11 0 18 4 14 10 -3 5 -12 7 -20 3 -11 -3 -15 2 -15 18 0 17 -3 20 -12 11 -8
-8 -8 -15 2 -27 10 -13 9 -15 -7 -15 -16 0 -19 5 -16 28 4 21 2 24 -6 12 -8
-11 -11 -11 -11 -2 0 7 7 15 15 18 30 12 14 22 -31 19 -31 -3 -55 2 -72 13
-24 16 -24 15 -17 -7 5 -17 4 -22 -6 -18 -8 2 -13 10 -11 16 1 6 -7 11 -18 11
-11 0 -19 5 -17 11 1 6 -5 14 -13 18 -8 5 -25 13 -37 19 -16 8 -24 8 -32 -2
-7 -8 -28 -11 -58 -10 -142 9 -171 12 -179 16 -5 2 -22 5 -38 6 -16 1 -35 7
-42 13 -7 6 -18 8 -24 4 -5 -3 -10 -1 -10 4 0 6 -9 11 -21 11 -11 0 -17 -4
-14 -10 3 -5 2 -10 -4 -10 -5 0 -13 5 -16 10 -8 12 -31 11 -66 -3z"/>
<path d="M6210 13007 c0 -15 110 -48 280 -83 236 -49 267 -57 360 -91 52 -19
184 -66 292 -104 108 -38 259 -96 335 -129 184 -81 203 -90 203 -96 0 -8 -53
8 -220 69 -348 125 -792 270 -945 307 -169 41 -269 73 -291 91 -11 9 -14 8
-14 -4 0 -9 13 -25 29 -36 26 -19 300 -121 376 -141 17 -4 57 -17 90 -28 33
-12 115 -37 183 -57 67 -19 209 -63 315 -96 356 -112 603 -180 648 -178 8 0
-15 15 -51 33 -36 18 -96 49 -135 69 -150 76 -279 131 -510 217 -375 139 -413
151 -622 190 -62 11 -158 34 -213 50 -115 35 -110 34 -110 17z"/>
<path d="M6031 12481 c-1 -117 -3 -223 -6 -235 -2 -11 -9 -97 -15 -191 -7 -93
-20 -228 -31 -300 -18 -126 -24 -203 -14 -194 2 3 14 84 25 180 11 96 25 210
30 254 27 212 40 632 21 680 -5 11 -9 -75 -10 -194z"/>
<path d="M6110 12651 c0 -14 85 -112 114 -130 14 -9 42 -32 63 -51 21 -20 130
-118 243 -220 398 -360 662 -648 918 -1002 51 -69 92 -129 92 -133 0 -3 18
-33 40 -66 22 -33 40 -64 40 -68 0 -4 8 -16 18 -27 10 -10 31 -37 47 -60 17
-23 57 -77 90 -120 33 -43 59 -81 59 -84 0 -3 10 -16 24 -30 24 -24 24 -25 18
-2 -7 22 7 31 19 12 4 -6 11 -8 16 -5 5 4 9 2 9 -4 0 -12 58 -71 71 -71 4 0
15 -13 24 -29 8 -16 25 -33 37 -37 12 -3 39 -24 59 -45 21 -22 42 -39 48 -39
6 0 11 -7 11 -15 0 -8 6 -15 13 -15 6 0 28 -20 48 -43 83 -96 176 -205 204
-240 17 -21 49 -59 72 -85 24 -26 43 -50 43 -54 0 -5 152 -162 338 -350 187
-189 386 -395 443 -459 57 -63 156 -173 221 -245 322 -357 663 -814 1014
-1359 70 -110 221 -370 264 -455 13 -25 26 -47 30 -50 16 -11 71 -130 65 -140
-4 -6 -1 -9 6 -8 6 2 16 -10 22 -27 6 -16 16 -34 23 -40 7 -5 15 -21 17 -35 2
-14 2 -19 0 -11 -4 12 -6 12 -15 0 -7 -10 -8 -6 -5 14 3 18 0 27 -9 27 -18 0
-20 8 25 -117 34 -96 72 -212 118 -368 8 -27 18 -59 23 -70 9 -22 56 -184 66
-227 3 -16 10 -28 14 -28 4 0 11 -24 14 -53 4 -29 10 -57 14 -63 4 -6 32 -16
62 -23 30 -6 66 -15 79 -18 21 -5 22 -4 11 17 -6 12 -36 93 -65 179 -267 790
-514 1228 -1259 2241 -215 293 -320 426 -525 665 -203 236 -213 247 -508 545
-371 376 -378 384 -555 595 -9 11 -44 54 -78 95 -34 41 -78 95 -98 120 -20 24
-61 76 -91 115 -55 71 -84 103 -227 254 -44 48 -100 109 -125 136 -24 28 -97
106 -162 174 -66 69 -164 181 -219 250 -55 70 -107 135 -116 146 -9 11 -52 63
-95 115 -42 52 -95 113 -118 135 -22 22 -48 52 -57 68 -9 15 -20 27 -24 27 -4
0 -8 6 -8 14 0 8 -7 16 -15 20 -8 3 -15 10 -15 16 0 19 -266 285 -449 449 -96
86 -220 197 -276 247 -107 96 -195 161 -195 145z"/>
<path d="M6206 7695 c-9 -21 -16 -43 -16 -49 0 -7 -14 -38 -31 -70 -24 -44
-34 -54 -44 -46 -9 8 -15 8 -20 0 -8 -13 -25 -3 -25 14 0 22 -31 89 -37 82 -4
-3 -6 -43 -4 -87 1 -69 7 -92 35 -153 48 -101 88 -145 56 -60 -8 21 -6 39 10
82 12 31 39 115 60 186 39 128 46 173 16 101z"/>
<path d="M13992 7456 c-136 -413 -291 -825 -435 -1151 -87 -200 -290 -623
-341 -712 -35 -63 -34 -81 3 -42 22 24 243 482 343 714 95 217 207 501 262
665 25 74 85 249 132 388 47 139 84 256 82 261 -2 4 -22 -51 -46 -123z"/>
<path d="M8380 2115 c1 -6 16 -35 35 -65 18 -30 44 -73 57 -95 24 -41 125
-269 149 -337 7 -21 16 -38 21 -38 4 0 4 -7 1 -17 -5 -12 -3 -14 7 -8 8 5 11
4 7 -2 -6 -10 10 -64 38 -123 l16 -35 -5 35 c-2 19 -7 43 -11 53 -4 10 -3 17
4 17 6 0 11 -9 11 -20 0 -11 4 -20 9 -20 5 0 7 -8 4 -19 -3 -10 0 -22 6 -25 6
-4 11 -23 11 -42 0 -19 4 -33 8 -30 4 2 14 1 22 -5 13 -7 13 -9 1 -9 -20 0 58
-69 87 -76 12 -4 22 -12 22 -18 0 -19 83 -56 124 -56 20 0 36 -4 36 -10 0 -5
18 -13 40 -16 22 -4 40 -10 40 -14 0 -4 18 -10 40 -14 31 -5 40 -11 40 -26 0
-15 9 -21 40 -26 44 -7 52 -20 18 -27 -13 -3 4 -3 36 -1 33 2 62 8 65 13 3 4
23 14 43 22 66 23 61 -3 -12 -69 -26 -23 -58 -45 -70 -47 -13 -2 -33 -14 -45
-25 -12 -11 -29 -20 -38 -20 -9 0 -17 -4 -17 -9 0 -6 11 -6 29 0 25 9 147 -9
246 -36 19 -6 20 -1 21 132 0 76 4 154 7 174 l8 37 -93 6 c-264 19 -450 38
-512 54 -83 20 -111 49 -160 163 -18 41 -53 109 -78 150 -25 41 -82 147 -127
235 -70 139 -182 317 -181 289z"/>
<path d="M8786 695 c-11 -8 -27 -15 -35 -15 -9 -1 -34 -9 -56 -20 -22 -11 -48
-19 -58 -20 -9 0 -25 -4 -35 -10 -66 -36 -239 -100 -273 -100 -10 0 -21 -4
-24 -10 -3 -5 -52 -24 -108 -41 -56 -17 -145 -46 -197 -65 -52 -18 -129 -40
-170 -49 -41 -9 -86 -21 -100 -25 -46 -15 -428 -99 -550 -121 -36 -6 -78 -15
-95 -20 -114 -31 -146 -42 -151 -51 -7 -11 7 -9 96 11 25 6 86 17 135 26 149
26 413 85 540 120 28 8 86 23 130 35 88 23 472 145 520 165 17 7 53 20 80 30
51 18 199 79 293 121 29 13 56 24 61 24 5 0 14 7 21 15 16 19 1 19 -24 0z"/>
</g>
</svg>
